<svg version="1.2" baseProfile="tiny-ps" xmlns="http://www.w3.org/2000/svg" viewBox="0 0 30 30" width="30" height="30">
	<title>Landing Page</title>
	<style>
		tspan { white-space:pre }
		.shp0 { fill: #ff6161 } 
	</style>
	<g id="Landing Page">
		<g id="contact">
			<g id="call">
				<g id="call">
					<path id="Path 464" fill-rule="evenodd" class="shp0" d="M30 15C30 18.11 28.49 22.07 25.12 23.93C23.17 25 19.85 25.81 15.54 22.92C13.48 21.55 12.22 20.04 11.16 19.01L11.15 19.02C11.12 18.99 11.1 18.96 11.07 18.93C11.04 18.9 11.01 18.88 10.98 18.85L10.99 18.85C9.96 17.78 8.96 16.69 8.01 15.56C5.5 12.61 5.83 8.66 8.4 7.03C8.51 6.95 8.61 6.86 8.73 6.81C9.45 6.51 10.28 6.48 11.04 6.3C12.02 6.08 13.93 10.58 12.71 10.97C12.26 11.11 10.83 11.33 10.45 11.61C10.11 11.86 10.27 12.49 10.61 12.88C11.48 13.9 12.76 15.05 13.78 16.05L13.78 16.05C13.81 16.08 13.84 16.11 13.87 16.13C13.89 16.16 13.92 16.19 13.95 16.22L13.95 16.22C14.95 17.24 16.1 18.52 17.12 19.4C17.51 19.73 18.14 19.89 18.39 19.55C18.67 19.17 18.89 17.74 19.03 17.29C19.42 16.07 23.92 17.98 23.7 18.96C23.52 19.72 23.49 20.55 23.19 21.27C23.14 21.39 23.05 21.49 22.97 21.6C22.6 22.19 22.09 22.66 21.51 23C22.48 23 23.39 22.77 24.23 22.31C26.54 21.03 28.15 18.03 28.15 15C28.15 7.75 22.25 1.85 15 1.85C7.75 1.85 1.85 7.75 1.85 15C1.85 22.25 7.75 28.15 15 28.15C15.51 28.15 15.92 28.56 15.92 29.08C15.92 29.59 15.51 30 15 30C6.73 30 0 23.27 0 15C0 6.73 6.73 0 15 0C23.27 0 30 6.73 30 15ZM23.25 15.15L21.72 15.16C21.72 11.62 18.84 8.74 15.3 8.74L15.31 7.21C19.69 7.21 23.25 10.78 23.25 15.15ZM25.89 15.16L24.36 15.16C24.36 10.16 20.3 6.1 15.31 6.1L15.31 4.58C21.14 4.57 25.89 9.32 25.89 15.16Z" />
				</g>
			</g>
		</g>
	</g>
</svg>