<svg version="1.2" baseProfile="tiny-ps" xmlns="http://www.w3.org/2000/svg" viewBox="0 0 23 31" width="23" height="31">
	<title>Landing Page</title>
	<style>
		tspan { white-space:pre }
		.shp0 { fill: #ff6161 } 
	</style>
	<g id="Landing Page">
		<g id="contact">
			<g id="adress">
				<g id="location1">
					<g id="Group 248">
						<path id="Path 463" fill-rule="evenodd" class="shp0" d="M22.6 11.43C22.47 18.99 12.39 29.91 11.96 30.37C11.56 30.81 10.87 30.79 10.48 30.35C10.07 29.87 0.38 18.6 0.51 11.04C0.62 4.95 5.66 0.09 11.75 0.19C17.84 0.3 22.71 5.34 22.6 11.43ZM17.12 11.33C17.17 8.27 14.72 5.73 11.66 5.68C8.59 5.63 6.05 8.08 6 11.14C5.95 14.2 8.4 16.74 11.46 16.79C14.53 16.85 17.06 14.4 17.12 11.33Z" />
					</g>
				</g>
			</g>
		</g>
	</g>
</svg>