<?xml version="1.0" encoding="utf-8"?>
<!-- Generator: Adobe Illustrator 16.0.0, SVG Export Plug-In . SVG Version: 6.00 Build 0)  -->
<!DOCTYPE svg PUBLIC "-//W3C//DTD SVG 1.1//EN" "http://www.w3.org/Graphics/SVG/1.1/DTD/svg11.dtd">
<svg version="1.1" id="Layer_1" xmlns="http://www.w3.org/2000/svg" xmlns:xlink="http://www.w3.org/1999/xlink" x="0px" y="0px"
	 width="400px" height="400px" viewBox="0 0 400 400" enable-background="new 0 0 400 400" xml:space="preserve">
<g>
	<path fill-rule="evenodd" clip-rule="evenodd" fill="#FFFFFF" d="M225.292,346.68c0.618-1.591,1.438-3.078,3.125-3.686
		c0.992-0.358,2.109-0.4,3.178-0.518c0.646-0.071,1.307-0.015,2.036-0.015c0-16.011,0-31.931,0-48.018
		c-0.91,0-1.827,0.018-2.743-0.005c-1.256-0.03-1.844-0.611-1.855-1.878c-0.021-2.294-0.02-4.588-0.002-6.882
		c0.012-1.412,0.617-1.961,2.143-1.963c6.337-0.006,12.674-0.002,19.011-0.002c2.91,0,5.819,0,8.805,0c0-2.487,0-4.878,0-7.465
		c-1.413,0-2.831,0.001-4.249,0c-2.027-0.004-2.425-0.406-2.426-2.471c-0.003-2.062-0.01-4.121,0.002-6.182
		c0.01-1.497,0.554-2.072,2.016-2.074c20.451-0.005,40.899-0.005,61.35,0c1.465,0.002,2.014,0.577,2.021,2.07
		c0.012,2.217,0.014,4.432-0.001,6.647c-0.009,1.476-0.555,1.996-2.067,2.006c-1.509,0.011-3.018,0.003-4.604,0.003
		c0,2.493,0,4.884,0,7.465c0.445,0,0.889,0,1.336,0c8.709,0,17.418-0.001,26.126,0c2.065,0,2.501,0.444,2.502,2.547
		c0.001,2.061,0.011,4.121-0.005,6.182c-0.011,1.409-0.579,1.976-1.975,1.999c-0.848,0.015-1.697,0.002-2.624,0.002
		c0,16.01,0,31.928,0,48.05c3.628-0.366,6.956,0.056,8.337,4.186c0,1.788,0,3.575,0,5.365c-0.492,0.869-1.229,1.162-2.227,1.162
		c-38.326-0.017-76.654-0.017-114.982,0c-0.997,0-1.736-0.29-2.227-1.162C225.292,350.255,225.292,348.468,225.292,346.68z
		 M262.422,276.294c0,22.065,0,44.034,0,66.024c4.576,0,9.063,0,13.671,0c0-0.5,0-0.917,0-1.335c0-4.12-0.006-8.239,0.002-12.358
		c0.002-1.739,0.492-2.236,2.193-2.238c4.47-0.004,8.939-0.004,13.408,0c1.716,0.001,2.225,0.5,2.229,2.205
		c0.008,4.159,0.001,8.317,0.006,12.477c0,0.409,0.036,0.819,0.057,1.258c4.615,0,9.104,0,13.611,0c0-22.047,0-44.019,0-66.032
		C292.519,276.294,277.528,276.294,262.422,276.294z M259.006,294.546c-7.419,0-14.7,0-21.958,0c0,15.979,0,31.854,0,47.767
		c7.352,0,14.632,0,21.958,0C259.006,326.346,259.006,310.47,259.006,294.546z M332.947,342.34c0-16.021,0-31.929,0-47.832
		c-7.351,0-14.604,0-21.911,0c0,15.965,0,31.867,0,47.832C318.372,342.34,325.622,342.34,332.947,342.34z M341.39,349.879
		c0.273-2.98,0.078-4.192-3.688-4.187c-35.291,0.061-70.583,0.035-105.875,0.036c-0.427,0-0.856-0.021-1.281,0.019
		c-1.115,0.098-1.802,0.736-1.947,1.823c-0.1,0.749-0.019,1.521-0.019,2.309C266.251,349.879,303.783,349.879,341.39,349.879z
		 M314.388,268.857c-19.658,0-39.181,0-58.717,0c0,1.405,0,2.735,0,4.059c19.617,0,39.141,0,58.717,0
		C314.388,271.543,314.388,270.238,314.388,268.857z M290.587,329.718c-3.791,0-7.459,0-11.152,0c0,4.232,0,8.398,0,12.622
		c3.745,0,7.41,0,11.152,0C290.587,338.112,290.587,333.947,290.587,329.718z M232.321,291.104c8.951,0,17.792,0,26.644,0
		c0-1.406,0-2.736,0-4.029c-8.943,0-17.784,0-26.644,0C232.321,288.447,232.321,289.725,232.321,291.104z M310.993,291.091
		c8.962,0,17.82,0,26.672,0c0-1.394,0-2.697,0-4.016c-8.921,0-17.775,0-26.672,0C310.993,288.438,310.993,289.71,310.993,291.091z"
		/>
	<path fill-rule="evenodd" clip-rule="evenodd" fill="#FFFFFF" d="M295.377,322.186c-2.021,0-4.04,0.011-6.06-0.004
		c-1.416-0.01-1.989-0.568-1.999-1.964c-0.016-2.408-0.017-4.816,0.002-7.226c0.01-1.33,0.57-1.924,1.926-1.934
		c4.117-0.026,8.234-0.028,12.353,0.004c1.332,0.01,1.872,0.616,1.882,1.978c0.017,2.407,0.021,4.816-0.001,7.224
		c-0.012,1.338-0.586,1.905-1.927,1.917C299.494,322.199,297.435,322.186,295.377,322.186z M290.677,314.374c0,1.599,0,3.051,0,4.46
		c3.229,0,6.357,0,9.438,0c0-1.542,0-2.993,0-4.46C296.914,314.374,293.817,314.374,290.677,314.374z"/>
	<path fill-rule="evenodd" clip-rule="evenodd" fill="#FFFFFF" d="M274.575,322.186c-2.018,0-4.039,0.012-6.058-0.004
		c-1.409-0.012-1.97-0.568-1.979-1.982c-0.018-2.408-0.02-4.816,0.002-7.224c0.011-1.281,0.56-1.9,1.826-1.91
		c4.155-0.035,8.312-0.034,12.469-0.002c1.28,0.009,1.85,0.618,1.861,1.877c0.021,2.447,0.021,4.894,0.002,7.341
		c-0.012,1.32-0.6,1.888-1.947,1.899C278.692,322.199,276.634,322.186,274.575,322.186z M279.394,314.391c-3.256,0-6.371,0-9.525,0
		c0,1.527,0,2.978,0,4.444c3.219,0,6.365,0,9.525,0C279.394,317.323,279.394,315.898,279.394,314.391z"/>
	<path fill-rule="evenodd" clip-rule="evenodd" fill="#FFFFFF" d="M274.515,280.45c2.06,0,4.118-0.013,6.177,0.003
		c1.419,0.011,2,0.572,2.009,1.96c0.019,2.408,0.019,4.817-0.001,7.226c-0.009,1.329-0.584,1.93-1.919,1.937
		c-4.117,0.022-8.235,0.023-12.353,0c-1.324-0.008-1.88-0.61-1.89-1.965c-0.018-2.409-0.02-4.817,0-7.226
		c0.01-1.338,0.587-1.916,1.918-1.929C270.476,280.434,272.496,280.45,274.515,280.45z M269.875,283.769c0,1.531,0,2.982,0,4.479
		c3.201,0,6.324,0,9.491,0c0-1.523,0-2.975,0-4.479C276.199,283.769,273.104,283.769,269.875,283.769z"/>
	<path fill-rule="evenodd" clip-rule="evenodd" fill="#FFFFFF" d="M295.423,291.585c-2.02,0-4.041,0.014-6.06-0.004
		c-1.48-0.015-2.038-0.578-2.046-2.05c-0.013-2.369-0.016-4.738,0.001-7.107c0.01-1.396,0.583-1.966,1.997-1.97
		c4.078-0.013,8.156-0.016,12.233,0.002c1.335,0.004,1.917,0.589,1.929,1.919c0.02,2.447,0.021,4.894-0.002,7.341
		c-0.014,1.253-0.6,1.84-1.878,1.859C299.54,291.606,297.48,291.583,295.423,291.585z M300.149,288.255c0-1.517,0-2.967,0-4.479
		c-3.191,0-6.315,0-9.504,0c0,1.51,0,2.961,0,4.479C293.834,288.255,296.957,288.255,300.149,288.255z"/>
	<path fill-rule="evenodd" clip-rule="evenodd" fill="#FFFFFF" d="M295.344,306.848c-2.019,0-4.038,0.012-6.057-0.004
		c-1.439-0.012-1.96-0.531-1.969-1.969c-0.015-2.368-0.015-4.736,0-7.105c0.009-1.438,0.532-1.975,1.96-1.979
		c4.078-0.015,8.154-0.014,12.23,0c1.438,0.005,1.96,0.532,1.971,1.972c0.016,2.368,0.016,4.736,0,7.106
		c-0.011,1.449-0.521,1.964-1.962,1.976C299.46,306.859,297.402,306.848,295.344,306.848z M290.643,303.497c3.238,0,6.363,0,9.505,0
		c0-1.502,0-2.919,0-4.385c-3.194,0-6.318,0-9.505,0C290.643,300.591,290.643,302.006,290.643,303.497z"/>
	<path fill-rule="evenodd" clip-rule="evenodd" fill="#FFFFFF" d="M274.722,295.784c2.02,0.001,4.039-0.013,6.058,0.007
		c1.36,0.012,1.91,0.556,1.92,1.904c0.021,2.406,0.019,4.814,0.001,7.223c-0.009,1.372-0.539,1.919-1.896,1.924
		c-4.116,0.016-8.231,0.016-12.349,0.001c-1.38-0.006-1.905-0.528-1.918-1.9c-0.02-2.407-0.02-4.814,0-7.223
		c0.01-1.417,0.543-1.921,2.01-1.931C270.605,295.774,272.663,295.784,274.722,295.784z M269.862,303.497c3.243,0,6.367,0,9.508,0
		c0-1.503,0-2.92,0-4.384c-3.193,0-6.317,0-9.508,0C269.862,300.592,269.862,302.007,269.862,303.497z"/>
	<path fill-rule="evenodd" clip-rule="evenodd" fill="#FFFFFF" d="M248.009,298.645c1.629,0,3.26-0.015,4.89,0.006
		c1.217,0.016,1.981,0.696,1.948,1.684c-0.03,0.943-0.764,1.565-1.929,1.57c-3.261,0.013-6.521,0.013-9.78,0
		c-1.213-0.004-1.981-0.688-1.949-1.668c0.033-0.945,0.766-1.57,1.929-1.586C244.747,298.629,246.377,298.645,248.009,298.645z"/>
	<path fill-rule="evenodd" clip-rule="evenodd" fill="#FFFFFF" d="M248.001,309.151c-1.629,0-3.26,0.013-4.889-0.005
		c-1.163-0.012-1.899-0.632-1.926-1.57c-0.027-0.981,0.738-1.675,1.955-1.682c3.261-0.02,6.52-0.021,9.781,0
		c1.209,0.007,1.973,0.728,1.925,1.712c-0.046,0.937-0.776,1.53-1.956,1.541C251.262,309.162,249.631,309.151,248.001,309.151z"/>
	<path fill-rule="evenodd" clip-rule="evenodd" fill="#FFFFFF" d="M247.999,316.41c-1.629,0-3.26,0.017-4.889-0.005
		c-1.174-0.017-1.899-0.634-1.925-1.573c-0.025-0.984,0.729-1.67,1.96-1.678c3.258-0.02,6.518-0.021,9.777,0.001
		c1.182,0.008,1.895,0.642,1.923,1.595c0.03,0.983-0.722,1.641-1.958,1.656C251.26,316.426,249.629,316.41,247.999,316.41z"/>
	<path fill-rule="evenodd" clip-rule="evenodd" fill="#FFFFFF" d="M247.994,323.66c-1.63,0.001-3.259,0.019-4.889-0.005
		c-1.181-0.018-1.897-0.63-1.919-1.575c-0.023-0.945,0.697-1.657,1.847-1.668c3.336-0.03,6.673-0.032,10.009,0.003
		c1.135,0.012,1.854,0.765,1.803,1.708c-0.049,0.907-0.738,1.512-1.846,1.53C251.331,323.68,249.663,323.66,247.994,323.66z"/>
	<path fill-rule="evenodd" clip-rule="evenodd" fill="#FFFFFF" d="M248.06,334.94c1.63,0.001,3.26-0.019,4.889,0.006
		c1.166,0.018,1.895,0.657,1.9,1.597c0.009,0.94-0.719,1.637-1.872,1.648c-3.298,0.028-6.595,0.028-9.893,0.001
		c-1.169-0.011-1.885-0.676-1.897-1.622c-0.012-0.982,0.732-1.612,1.985-1.626C244.801,334.925,246.43,334.94,248.06,334.94z"/>
	<path fill-rule="evenodd" clip-rule="evenodd" fill="#FFFFFF" d="M247.996,330.916c-1.628,0-3.257,0.019-4.888-0.006
		c-1.188-0.017-1.897-0.625-1.922-1.574c-0.024-0.941,0.691-1.653,1.846-1.664c3.336-0.033,6.671-0.034,10.007,0.002
		c1.141,0.011,1.856,0.758,1.806,1.701c-0.049,0.912-0.729,1.513-1.845,1.533C251.333,330.937,249.665,330.916,247.996,330.916z"/>
	<path fill-rule="evenodd" clip-rule="evenodd" fill="#FFFFFF" d="M321.943,301.908c-1.63,0-3.261,0.016-4.891-0.005
		c-1.146-0.015-1.88-0.67-1.88-1.618c0-0.956,0.726-1.627,1.878-1.634c3.3-0.02,6.6-0.02,9.898,0
		c1.143,0.007,1.881,0.687,1.882,1.634c0.002,0.944-0.737,1.604-1.881,1.618C325.282,301.924,323.612,301.908,321.943,301.908z"/>
	<path fill-rule="evenodd" clip-rule="evenodd" fill="#FFFFFF" d="M321.984,309.151c-1.629,0-3.259,0.013-4.89-0.005
		c-1.166-0.012-1.898-0.629-1.924-1.572c-0.027-0.985,0.733-1.673,1.955-1.68c3.262-0.02,6.521-0.021,9.781,0
		c1.207,0.008,1.973,0.729,1.924,1.712c-0.046,0.936-0.78,1.53-1.955,1.541C325.245,309.162,323.616,309.151,321.984,309.151z"/>
	<path fill-rule="evenodd" clip-rule="evenodd" fill="#FFFFFF" d="M322.022,323.662c-1.63,0-3.26,0.016-4.889-0.005
		c-1.242-0.017-1.988-0.669-1.962-1.651c0.025-0.948,0.735-1.588,1.921-1.598c3.259-0.025,6.518-0.024,9.777-0.001
		c1.236,0.009,1.987,0.694,1.963,1.675c-0.022,0.976-0.763,1.563-2.041,1.576C325.202,323.675,323.612,323.662,322.022,323.662z"/>
	<path fill-rule="evenodd" clip-rule="evenodd" fill="#FFFFFF" d="M322.054,316.409c-1.67,0-3.339,0.019-5.006-0.006
		c-1.154-0.017-1.883-0.674-1.877-1.618c0.005-0.951,0.728-1.62,1.889-1.628c3.297-0.024,6.598-0.025,9.895,0
		c1.152,0.009,1.881,0.694,1.879,1.639c-0.002,0.943-0.732,1.591-1.891,1.608C325.313,316.429,323.683,316.41,322.054,316.409z"/>
	<path fill-rule="evenodd" clip-rule="evenodd" fill="#FFFFFF" d="M322.022,334.941c1.63-0.001,3.26-0.019,4.889,0.005
		c1.182,0.017,1.9,0.632,1.922,1.573c0.021,0.945-0.701,1.659-1.848,1.67c-3.337,0.03-6.674,0.032-10.01-0.004
		c-1.133-0.011-1.854-0.764-1.803-1.708c0.049-0.906,0.738-1.512,1.846-1.529C318.687,334.922,320.355,334.941,322.022,334.941z"/>
	<path fill-rule="evenodd" clip-rule="evenodd" fill="#FFFFFF" d="M321.943,330.916c-1.63,0-3.259,0.02-4.888-0.007
		c-1.167-0.02-1.889-0.666-1.887-1.613c0-0.937,0.723-1.617,1.887-1.628c3.298-0.029,6.595-0.03,9.892,0
		c1.166,0.011,1.887,0.692,1.887,1.629c0,0.947-0.72,1.593-1.887,1.611C325.279,330.936,323.61,330.916,321.943,330.916z"/>
</g>
<g>
	<path fill-rule="evenodd" clip-rule="evenodd" fill="#FFFFFF" d="M293.086,20.528c2.4,1.257,3.229,3.219,3.2,5.925
		c-0.109,10.332-0.016,20.666-0.068,30.999c-0.016,3.063-1.851,4.99-4.45,4.986c-2.558-0.004-4.349-1.965-4.538-4.999
		c-0.042-0.7-0.016-1.405-0.016-2.106c0-7.425,0-14.848,0-22.271c0-1.074,0-2.15,0-3.356c-70.015,0-139.692,0-209.797,0
		c0,1.324,0,2.584,0,3.844c0,67.716,0.004,135.433-0.013,203.149c-0.001,1.393-0.008,2.839-0.366,4.163
		c-0.603,2.225-2.293,3.24-4.567,3.055c-2.288-0.187-3.658-1.517-3.986-3.79c-0.143-0.985-0.094-2-0.094-3.003
		C68.388,167.2,68.396,97.276,68.354,27.353c-0.002-2.884,0.276-5.411,3.19-6.824C145.392,20.528,219.239,20.528,293.086,20.528z"/>
	<path fill-rule="evenodd" clip-rule="evenodd" fill="#FFFFFF" d="M206.419,319.563c0.4,3.13,1,6.2,1.771,9.2h-10.29
		c-40.811,0-81.62,0-122.431-0.01c-6,0-7.079-1.04-7.079-6.9v-59c0-1-0.03-2.02,0.109-3c0.34-2.319,1.96-3.88,4.061-3.62
		c1.58,0.2,3.27,1.58,4.359,2.891c0.69,0.83,0.48,2.489,0.48,3.779c0.029,17.66,0.02,35.32,0.02,52.98v3.68H206.419z"/>
	<path fill-rule="evenodd" clip-rule="evenodd" fill="#FFFFFF" d="M296.249,222.063v10.101c-2.96-0.471-5.97-0.771-9.03-0.9
		c-0.01-3.33-0.01-6.66,0-10c-0.01-46.45,0-92.91,0.011-139.37c0-1.39-0.011-2.83,0.34-4.16c0.58-2.239,2.25-3.27,4.53-3.12
		c2.3,0.15,3.68,1.461,4.04,3.73c0.149,0.98,0.1,2,0.1,3C296.249,128.254,296.249,175.153,296.249,222.063z"/>
	<path fill-rule="evenodd" clip-rule="evenodd" fill="#FFFFFF" d="M265.369,233.424c0-0.45,0.01-0.89,0.05-1.34
		c0.25-2.57,1.771-4,4.271-4.24c2.279-0.23,4.25,1.52,4.649,3.94L265.369,233.424z"/>
	<path fill-rule="evenodd" clip-rule="evenodd" fill="#FFFFFF" d="M274.399,210.264c-0.03,3.5-1.74,5.46-4.62,5.4
		c-2.771-0.051-4.351-1.94-4.39-5.33c-0.03-3.38-0.011-6.76-0.011-10.29h-19.95v41.3c-3.239,1.84-6.329,3.9-9.26,6.17v-12.24
		c0-12.76,0-25.52,0.01-38.279c0-4.771,1.381-6.131,6.04-6.141c8.83-0.01,17.65-0.02,26.48,0c4.12,0.01,5.67,1.53,5.7,5.57
		C274.439,201.034,274.439,205.653,274.399,210.264z"/>
	<path fill-rule="evenodd" clip-rule="evenodd" fill="#FFFFFF" d="M122.829,79.523c-19.15-0.04-34.939,15.59-35.03,34.65
		c-0.08,19.31,15.591,35.14,34.811,35.18c19.14,0.04,34.93-15.58,35.02-34.66C157.729,95.384,142.069,79.563,122.829,79.523z
		 M127.459,89.273c9.75,0.95,19.47,10.681,20.41,20.41h-20.41V89.273z M122.119,140.313c-13.55-0.27-24.86-11.42-25.26-24.899
		c-0.391-12.92,9.479-25.21,21.34-26.12v5.35c0,6.311-0.05,12.63,0.03,18.94c0.05,3.79,1.56,5.279,5.35,5.31
		c7.01,0.061,14.03,0.021,21.05,0.03h3.2C147.06,130.594,134.869,140.563,122.119,140.313z"/>
	<path fill-rule="evenodd" clip-rule="evenodd" fill="#FFFFFF" d="M235.429,46.363c-0.01-5.1-1.31-6.409-6.399-6.42
		c-15.54-0.01-31.08,0-46.61,0c-15.74,0-31.479-0.01-47.22,0.011c-4.53,0-5.97,1.439-5.99,5.909c-0.03,5.61-0.03,11.221,0,16.841
		c0.021,4.279,1.5,5.819,5.79,5.819c31.58,0.021,63.15,0.03,94.73,0c4.22,0,5.67-1.58,5.689-5.92
		C235.449,57.193,235.439,51.773,235.429,46.363z M226.209,59.344h-87.79v-10.16h87.79V59.344z"/>
	<path fill-rule="evenodd" clip-rule="evenodd" fill="#FFFFFF" d="M219.929,215.094c-8.819-0.03-17.64-0.02-26.46,0
		c-4.35,0.02-5.869,1.48-5.88,5.72c-0.02,27.57-0.01,55.13,0,82.69c0,4.3,1.5,5.81,5.771,5.83c0.8,0,1.59,0.01,2.39,0.01
		c3.33,0.01,6.67,0.02,10,0.02c0-3.14,0.19-6.229,0.55-9.27h-9.449v-75.8h19.67v45.51c2.649-4.49,5.729-8.7,9.189-12.56v-14.051
		c0-7.43,0.01-14.85,0-22.279C225.699,216.653,224.189,215.113,219.929,215.094z"/>
	<path fill-rule="evenodd" clip-rule="evenodd" fill="#FFFFFF" d="M177.049,280.294c0-7.62,0.021-15.24-0.01-22.86
		c-0.01-4.33-1.45-5.76-5.75-5.77c-8.83-0.021-17.649-0.021-26.479,0c-4.48,0-5.881,1.42-5.891,5.949
		c-0.01,15.24-0.01,30.48,0,45.721c0.01,4.51,1.45,5.979,5.92,6c8.721,0.029,17.44,0.029,26.17,0c4.631-0.01,6.021-1.45,6.04-6.181
		C177.069,295.534,177.049,287.914,177.049,280.294z M167.77,300.134h-19.641v-39.35h19.641V300.134z"/>
	<path fill-rule="evenodd" clip-rule="evenodd" fill="#FFFFFF" d="M227.497,79.525c14.238,0,28.478-0.001,42.715,0.002
		c0.9,0,1.826-0.088,2.701,0.073c2.354,0.435,3.785,1.896,3.861,4.302c0.078,2.42-1.303,3.956-3.61,4.515
		c-0.954,0.231-1.995,0.134-2.995,0.134c-28.576,0.006-57.151,0.005-85.727,0.004c-0.803,0-1.612,0.046-2.404-0.048
		c-2.578-0.302-4.299-2.196-4.139-4.647c0.166-2.571,1.646-3.998,4.18-4.297c0.791-0.094,1.603-0.036,2.405-0.036
		C198.821,79.525,213.16,79.525,227.497,79.525z"/>
	<path fill-rule="evenodd" clip-rule="evenodd" fill="#FFFFFF" d="M227.147,129.038c-14.135,0.003-28.27,0.005-42.404-0.002
		c-1.102-0.001-2.225,0.055-3.298-0.137c-2.131-0.382-3.337-1.773-3.526-3.912c-0.188-2.125,0.698-3.799,2.738-4.496
		c1.194-0.409,2.554-0.461,3.84-0.462c28.569-0.023,57.141-0.019,85.711-0.019c0.5,0,1.004-0.018,1.504,0.01
		c3.225,0.177,5.199,2.013,5.093,4.721c-0.103,2.581-2.017,4.271-5.147,4.278C256.821,129.055,241.983,129.035,227.147,129.038z"/>
	<path fill-rule="evenodd" clip-rule="evenodd" fill="#FFFFFF" d="M227.46,99.845c14.235-0.001,28.471-0.003,42.706,0.003
		c1,0.001,2.284-0.317,2.944,0.175c1.398,1.042,3.301,2.436,3.445,3.845c0.146,1.412-1.319,3.35-2.604,4.429
		c-0.89,0.745-2.674,0.557-4.058,0.558c-28.369,0.026-56.74,0.021-85.109,0.021c-0.501,0-1.002,0.013-1.503-0.006
		c-3.488-0.128-5.472-1.859-5.396-4.698c0.073-2.75,1.932-4.308,5.367-4.313C197.987,99.831,212.725,99.846,227.46,99.845z"/>
	<path fill-rule="evenodd" clip-rule="evenodd" fill="#FFFFFF" d="M128.439,286.394c-0.04-4.069-1.61-5.609-5.73-5.63
		c-8.93-0.05-17.85-0.05-26.78,0c-4.09,0.03-5.68,1.64-5.699,5.65c-0.03,5.71-0.03,11.43,0,17.14c0.02,4.2,1.59,5.75,5.87,5.78
		c4.42,0.04,8.829,0.01,13.239,0.01c4.511,0,9.03,0.04,13.54-0.02c3.931-0.051,5.511-1.58,5.561-5.48
		C128.509,298.023,128.509,292.214,128.439,286.394z M119.199,300.164h-19.75v-10.13h19.75V300.164z"/>
	<path fill-rule="evenodd" clip-rule="evenodd" fill="#FFFFFF" d="M141.232,199.401c-12.841,0-25.685,0.001-38.526-0.003
		c-1.003,0-2.018,0.056-3.006-0.077c-2.427-0.325-3.807-1.854-3.947-4.212c-0.133-2.244,1.078-3.859,3.268-4.47
		c1.036-0.288,2.181-0.258,3.277-0.259c25.983-0.013,51.969-0.01,77.955-0.008c0.803,0,1.614-0.054,2.404,0.052
		c2.559,0.347,4.266,2.3,4.066,4.729c-0.214,2.568-1.686,4.053-4.258,4.188c-2.402,0.127-4.813,0.058-7.222,0.059
		C163.906,199.403,152.57,199.401,141.232,199.401z"/>
	<path fill-rule="evenodd" clip-rule="evenodd" fill="#FFFFFF" d="M141.151,179.197c-12.738,0-25.477,0.004-38.216-0.007
		c-1.099-0.001-2.216,0.008-3.298-0.163c-2.554-0.405-3.979-2.054-3.875-4.56c0.104-2.499,1.64-4.02,4.227-4.245
		c0.896-0.077,1.803-0.054,2.706-0.054c25.677-0.003,51.354-0.003,77.032,0.002c1.102,0.001,2.219-0.036,3.302,0.126
		c2.297,0.346,3.573,1.806,3.685,4.079c0.119,2.4-1.043,4.067-3.457,4.57c-1.162,0.243-2.39,0.239-3.59,0.241
		C166.829,179.202,153.991,179.197,141.151,179.197z"/>
	<path fill-rule="evenodd" clip-rule="evenodd" fill="#FFFFFF" d="M209.015,149.358c-8.528,0-17.055,0.016-25.582-0.007
		c-3.533-0.01-5.55-1.677-5.563-4.49c-0.012-2.816,2.012-4.521,5.525-4.524c17.156-0.017,34.312-0.02,51.467,0.003
		c3.517,0.004,5.466,1.74,5.389,4.636c-0.073,2.749-1.983,4.361-5.354,4.373C226.269,149.378,217.642,149.358,209.015,149.358z"/>
	<path fill-rule="evenodd" clip-rule="evenodd" fill="#FFFFFF" d="M123.226,210.719c7.218,0,14.437-0.017,21.655,0.007
		c3.325,0.012,5.347,1.642,5.454,4.293c0.111,2.757-2.016,4.704-5.412,4.713c-14.638,0.035-29.274,0.037-43.913-0.002
		c-3.249-0.01-5.292-1.855-5.309-4.519c-0.019-2.671,2.028-4.467,5.267-4.481C108.388,210.697,115.807,210.719,123.226,210.719z"/>
</g>
<g>
	<path fill="#FFFFFF" d="M196.85,295.474v4.62h9.449c1.301-10.95,4.87-21.21,10.221-30.29v-17.22
		C206.399,264.584,199.409,279.304,196.85,295.474z M296.249,222.063c-2.96-0.43-5.97-0.7-9.03-0.8c-1.09-0.05-2.189-0.07-3.3-0.07
		c-13.79,0-26.859,3.181-38.49,8.86c-3.199,1.55-6.289,3.3-9.26,5.22c-3.689,2.38-7.18,5.03-10.46,7.92
		c-3.29,2.9-6.37,6.04-9.189,9.391c-10.12,12-17.11,26.72-19.67,42.89c-0.73,4.521-1.101,9.15-1.101,13.87c0,0.01,0,0.01,0,0.02
		c0,3.45,0.2,6.851,0.601,10.2c0.35,3.12,0.869,6.19,1.55,9.2c8.859,39.311,44.06,68.76,86.02,68.76
		c48.61,0,88.17-39.55,88.17-88.16C372.089,264.934,339.049,228.074,296.249,222.063z M283.919,387.523
		c-36.41,0-67.08-25.01-75.729-58.76c-0.771-3-1.37-6.07-1.771-9.2c-0.439-3.34-0.67-6.739-0.67-10.2c0-3.14,0.19-6.229,0.55-9.27
		c1.301-10.95,4.87-21.21,10.221-30.29c2.649-4.49,5.729-8.7,9.189-12.56c3.181-3.551,6.681-6.811,10.46-9.73
		c2.931-2.27,6.021-4.33,9.26-6.17c6.171-3.51,12.87-6.2,19.94-7.92c2.93-0.72,5.92-1.271,8.97-1.64
		c3.141-0.391,6.34-0.591,9.58-0.591c1.11,0,2.21,0.021,3.3,0.07c3.061,0.13,6.07,0.43,9.03,0.9
		c37.26,5.93,65.84,38.29,65.84,77.199C362.089,352.464,327.02,387.523,283.919,387.523z M196.85,295.474v4.62h9.449
		c1.301-10.95,4.87-21.21,10.221-30.29v-17.22C206.399,264.584,199.409,279.304,196.85,295.474z"/>
</g>
</svg>
