<?xml version="1.0" encoding="utf-8"?>
<!-- Generator: Adobe Illustrator 16.0.0, SVG Export Plug-In . SVG Version: 6.00 Build 0)  -->
<!DOCTYPE svg PUBLIC "-//W3C//DTD SVG 1.1//EN" "http://www.w3.org/Graphics/SVG/1.1/DTD/svg11.dtd">
<svg version="1.1" id="Layer_1" xmlns="http://www.w3.org/2000/svg" xmlns:xlink="http://www.w3.org/1999/xlink" x="0px" y="0px"
	 width="400px" height="400px" viewBox="0 0 400 400" enable-background="new 0 0 400 400" xml:space="preserve">
<path fill-rule="evenodd" clip-rule="evenodd" fill="#FFFFFF" d="M295.409,299.486c8.094,5.377,15.861,10.596,23.727,15.658
	c0.637,0.411,2.13,0.065,2.916-0.424c3.55-2.21,6.97-4.623,10.469-6.913c3.48-2.274,5.566-2.129,8.457,0.68
	c3.246,3.153,6.45,6.349,9.596,9.6c3.004,3.104,3.046,5.813,0.037,8.865c-6.832,6.926-13.66,13.855-20.65,20.62
	c-5.685,5.499-13.152,6.348-19.967,2.202c-29.934-18.202-59.812-36.49-89.688-54.787c-3.965-2.431-4.362-5.943-1.246-9.317
	c1.072-1.162,2.218-2.259,3.351-3.365c9.728-9.529,22.44-11.108,34.186-4.266c3.215,1.874,6.407,5.076,9.688,5.18
	c3.289,0.104,6.683-2.89,10.022-4.549c6.268-3.12,12.563-6.195,18.781-9.412c3.057-1.581,5.514-1.114,7.967,1.241
	c8.088,7.756,8.141,7.913,1.429,16.893C301.573,291.284,298.652,295.165,295.409,299.486z M294.615,282.382
	c-0.171-0.151-0.339-0.301-0.507-0.452c-7.87,3.932-15.822,7.708-23.572,11.862c-3.56,1.907-6.488,1.71-9.742-0.49
	c-3.453-2.336-7.083-4.436-10.735-6.46c-6.334-3.512-13.436-2.67-18.608,2.161c0.967,0.614,1.893,1.216,2.833,1.792
	c25.914,15.843,51.829,31.684,77.745,47.521c7.322,4.474,7.412,4.457,13.462-1.59c0.559-0.56,1.116-1.122,1.678-1.679
	c4.14-4.109,8.279-8.217,12.379-12.286c-3.53-4.198-3.532-4.201-7.45-1.604c-2.633,1.747-5.316,3.43-7.882,5.273
	c-2.767,1.986-5.312,1.851-8.104-0.039c-10.104-6.834-20.292-13.541-30.418-20.342c-4.169-2.798-4.573-5.508-1.533-9.622
	C287.628,291.734,291.128,287.062,294.615,282.382z"/>
<g>
	<path fill-rule="evenodd" clip-rule="evenodd" fill="#FFFFFF" d="M293.086,20.528c2.4,1.257,3.229,3.219,3.2,5.925
		c-0.109,10.332-0.016,20.666-0.068,30.999c-0.016,3.063-1.851,4.99-4.45,4.986c-2.558-0.004-4.349-1.965-4.538-4.999
		c-0.042-0.7-0.016-1.405-0.016-2.106c0-7.425,0-14.848,0-22.271c0-1.074,0-2.15,0-3.356c-70.015,0-139.692,0-209.797,0
		c0,1.324,0,2.584,0,3.844c0,67.716,0.004,135.433-0.013,203.149c-0.001,1.393-0.008,2.839-0.366,4.163
		c-0.603,2.225-2.293,3.24-4.567,3.055c-2.288-0.187-3.658-1.517-3.986-3.79c-0.143-0.985-0.094-2-0.094-3.003
		C68.388,167.2,68.396,97.276,68.354,27.353c-0.002-2.884,0.276-5.411,3.19-6.824C145.392,20.528,219.239,20.528,293.086,20.528z"/>
	<path fill-rule="evenodd" clip-rule="evenodd" fill="#FFFFFF" d="M206.419,319.563c0.4,3.13,1,6.2,1.771,9.2h-10.29
		c-40.811,0-81.62,0-122.431-0.01c-6,0-7.079-1.04-7.079-6.9v-59c0-1-0.03-2.02,0.109-3c0.34-2.319,1.96-3.88,4.061-3.62
		c1.58,0.2,3.27,1.58,4.359,2.891c0.69,0.83,0.48,2.489,0.48,3.779c0.029,17.66,0.02,35.32,0.02,52.98v3.68H206.419z"/>
	<path fill-rule="evenodd" clip-rule="evenodd" fill="#FFFFFF" d="M296.249,222.063v10.101c-2.96-0.471-5.97-0.771-9.03-0.9
		c-0.01-3.33-0.01-6.66,0-10c-0.01-46.45,0-92.91,0.011-139.37c0-1.39-0.011-2.83,0.34-4.16c0.58-2.239,2.25-3.27,4.53-3.12
		c2.3,0.15,3.68,1.461,4.04,3.73c0.149,0.98,0.1,2,0.1,3C296.249,128.254,296.249,175.153,296.249,222.063z"/>
	<path fill-rule="evenodd" clip-rule="evenodd" fill="#FFFFFF" d="M265.369,233.424c0-0.45,0.01-0.89,0.05-1.34
		c0.25-2.57,1.771-4,4.271-4.24c2.279-0.23,4.25,1.52,4.649,3.94L265.369,233.424z"/>
	<path fill-rule="evenodd" clip-rule="evenodd" fill="#FFFFFF" d="M274.399,210.264c-0.03,3.5-1.74,5.46-4.62,5.4
		c-2.771-0.051-4.351-1.94-4.39-5.33c-0.03-3.38-0.011-6.76-0.011-10.29h-19.95v41.3c-3.239,1.84-6.329,3.9-9.26,6.17v-12.24
		c0-12.76,0-25.52,0.01-38.279c0-4.771,1.381-6.131,6.04-6.141c8.83-0.01,17.65-0.02,26.48,0c4.12,0.01,5.67,1.53,5.7,5.57
		C274.439,201.034,274.439,205.653,274.399,210.264z"/>
	<path fill-rule="evenodd" clip-rule="evenodd" fill="#FFFFFF" d="M122.829,79.523c-19.15-0.04-34.939,15.59-35.03,34.65
		c-0.08,19.31,15.591,35.14,34.811,35.18c19.14,0.04,34.93-15.58,35.02-34.66C157.729,95.384,142.069,79.563,122.829,79.523z
		 M127.459,89.273c9.75,0.95,19.47,10.681,20.41,20.41h-20.41V89.273z M122.119,140.313c-13.55-0.27-24.86-11.42-25.26-24.899
		c-0.391-12.92,9.479-25.21,21.34-26.12v5.35c0,6.311-0.05,12.63,0.03,18.94c0.05,3.79,1.56,5.279,5.35,5.31
		c7.01,0.061,14.03,0.021,21.05,0.03h3.2C147.06,130.594,134.869,140.563,122.119,140.313z"/>
	<path fill-rule="evenodd" clip-rule="evenodd" fill="#FFFFFF" d="M235.429,46.363c-0.01-5.1-1.31-6.409-6.399-6.42
		c-15.54-0.01-31.08,0-46.61,0c-15.74,0-31.479-0.01-47.22,0.011c-4.53,0-5.97,1.439-5.99,5.909c-0.03,5.61-0.03,11.221,0,16.841
		c0.021,4.279,1.5,5.819,5.79,5.819c31.58,0.021,63.15,0.03,94.73,0c4.22,0,5.67-1.58,5.689-5.92
		C235.449,57.193,235.439,51.773,235.429,46.363z M226.209,59.344h-87.79v-10.16h87.79V59.344z"/>
	<path fill-rule="evenodd" clip-rule="evenodd" fill="#FFFFFF" d="M219.929,215.094c-8.819-0.03-17.64-0.02-26.46,0
		c-4.35,0.02-5.869,1.48-5.88,5.72c-0.02,27.57-0.01,55.13,0,82.69c0,4.3,1.5,5.81,5.771,5.83c0.8,0,1.59,0.01,2.39,0.01
		c3.33,0.01,6.67,0.02,10,0.02c0-3.14,0.19-6.229,0.55-9.27h-9.449v-75.8h19.67v45.51c2.649-4.49,5.729-8.7,9.189-12.56v-14.051
		c0-7.43,0.01-14.85,0-22.279C225.699,216.653,224.189,215.113,219.929,215.094z"/>
	<path fill-rule="evenodd" clip-rule="evenodd" fill="#FFFFFF" d="M177.049,280.294c0-7.62,0.021-15.24-0.01-22.86
		c-0.01-4.33-1.45-5.76-5.75-5.77c-8.83-0.021-17.649-0.021-26.479,0c-4.48,0-5.881,1.42-5.891,5.949
		c-0.01,15.24-0.01,30.48,0,45.721c0.01,4.51,1.45,5.979,5.92,6c8.721,0.029,17.44,0.029,26.17,0c4.631-0.01,6.021-1.45,6.04-6.181
		C177.069,295.534,177.049,287.914,177.049,280.294z M167.77,300.134h-19.641v-39.35h19.641V300.134z"/>
	<path fill-rule="evenodd" clip-rule="evenodd" fill="#FFFFFF" d="M227.497,79.525c14.238,0,28.478-0.001,42.715,0.002
		c0.9,0,1.826-0.088,2.701,0.073c2.354,0.435,3.785,1.896,3.861,4.302c0.078,2.42-1.303,3.956-3.61,4.515
		c-0.954,0.231-1.995,0.134-2.995,0.134c-28.576,0.006-57.151,0.005-85.727,0.004c-0.803,0-1.612,0.046-2.404-0.048
		c-2.578-0.302-4.299-2.196-4.139-4.647c0.166-2.571,1.646-3.998,4.18-4.297c0.791-0.094,1.603-0.036,2.405-0.036
		C198.821,79.525,213.16,79.525,227.497,79.525z"/>
	<path fill-rule="evenodd" clip-rule="evenodd" fill="#FFFFFF" d="M227.147,129.038c-14.135,0.003-28.27,0.005-42.404-0.002
		c-1.102-0.001-2.225,0.055-3.298-0.137c-2.131-0.382-3.337-1.773-3.526-3.912c-0.188-2.125,0.698-3.799,2.738-4.496
		c1.194-0.409,2.554-0.461,3.84-0.462c28.569-0.023,57.141-0.019,85.711-0.019c0.5,0,1.004-0.018,1.504,0.01
		c3.225,0.177,5.199,2.013,5.093,4.721c-0.103,2.581-2.017,4.271-5.147,4.278C256.821,129.055,241.983,129.035,227.147,129.038z"/>
	<path fill-rule="evenodd" clip-rule="evenodd" fill="#FFFFFF" d="M227.46,99.845c14.235-0.001,28.471-0.003,42.706,0.003
		c1,0.001,2.284-0.317,2.944,0.175c1.398,1.042,3.301,2.436,3.445,3.845c0.146,1.412-1.319,3.35-2.604,4.429
		c-0.89,0.745-2.674,0.557-4.058,0.558c-28.369,0.026-56.74,0.021-85.109,0.021c-0.501,0-1.002,0.013-1.503-0.006
		c-3.488-0.128-5.472-1.859-5.396-4.698c0.073-2.75,1.932-4.308,5.367-4.313C197.987,99.831,212.725,99.846,227.46,99.845z"/>
	<path fill-rule="evenodd" clip-rule="evenodd" fill="#FFFFFF" d="M128.439,286.394c-0.04-4.069-1.61-5.609-5.73-5.63
		c-8.93-0.05-17.85-0.05-26.78,0c-4.09,0.03-5.68,1.64-5.699,5.65c-0.03,5.71-0.03,11.43,0,17.14c0.02,4.2,1.59,5.75,5.87,5.78
		c4.42,0.04,8.829,0.01,13.239,0.01c4.511,0,9.03,0.04,13.54-0.02c3.931-0.051,5.511-1.58,5.561-5.48
		C128.509,298.023,128.509,292.214,128.439,286.394z M119.199,300.164h-19.75v-10.13h19.75V300.164z"/>
	<path fill-rule="evenodd" clip-rule="evenodd" fill="#FFFFFF" d="M141.232,199.401c-12.841,0-25.685,0.001-38.526-0.003
		c-1.003,0-2.018,0.056-3.006-0.077c-2.427-0.325-3.807-1.854-3.947-4.212c-0.133-2.244,1.078-3.859,3.268-4.47
		c1.036-0.288,2.181-0.258,3.277-0.259c25.983-0.013,51.969-0.01,77.955-0.008c0.803,0,1.614-0.054,2.404,0.052
		c2.559,0.347,4.266,2.3,4.066,4.729c-0.214,2.568-1.686,4.053-4.258,4.188c-2.402,0.127-4.813,0.058-7.222,0.059
		C163.906,199.403,152.57,199.401,141.232,199.401z"/>
	<path fill-rule="evenodd" clip-rule="evenodd" fill="#FFFFFF" d="M141.151,179.197c-12.738,0-25.477,0.004-38.216-0.007
		c-1.099-0.001-2.216,0.008-3.298-0.163c-2.554-0.405-3.979-2.054-3.875-4.56c0.104-2.499,1.64-4.02,4.227-4.245
		c0.896-0.077,1.803-0.054,2.706-0.054c25.677-0.003,51.354-0.003,77.032,0.002c1.102,0.001,2.219-0.036,3.302,0.126
		c2.297,0.346,3.573,1.806,3.685,4.079c0.119,2.4-1.043,4.067-3.457,4.57c-1.162,0.243-2.39,0.239-3.59,0.241
		C166.829,179.202,153.991,179.197,141.151,179.197z"/>
	<path fill-rule="evenodd" clip-rule="evenodd" fill="#FFFFFF" d="M209.015,149.358c-8.528,0-17.055,0.016-25.582-0.007
		c-3.533-0.01-5.55-1.677-5.563-4.49c-0.012-2.816,2.012-4.521,5.525-4.524c17.156-0.017,34.312-0.02,51.467,0.003
		c3.517,0.004,5.466,1.74,5.389,4.636c-0.073,2.749-1.983,4.361-5.354,4.373C226.269,149.378,217.642,149.358,209.015,149.358z"/>
	<path fill-rule="evenodd" clip-rule="evenodd" fill="#FFFFFF" d="M123.226,210.719c7.218,0,14.437-0.017,21.655,0.007
		c3.325,0.012,5.347,1.642,5.454,4.293c0.111,2.757-2.016,4.704-5.412,4.713c-14.638,0.035-29.274,0.037-43.913-0.002
		c-3.249-0.01-5.292-1.855-5.309-4.519c-0.019-2.671,2.028-4.467,5.267-4.481C108.388,210.697,115.807,210.719,123.226,210.719z"/>
</g>
<g>
	<path fill="#FFFFFF" d="M196.85,295.474v4.62h9.449c1.301-10.95,4.87-21.21,10.221-30.29v-17.22
		C206.399,264.584,199.409,279.304,196.85,295.474z M296.249,222.063c-2.96-0.43-5.97-0.7-9.03-0.8c-1.09-0.05-2.189-0.07-3.3-0.07
		c-13.79,0-26.859,3.181-38.49,8.86c-3.199,1.55-6.289,3.3-9.26,5.22c-3.689,2.38-7.18,5.03-10.46,7.92
		c-3.29,2.9-6.37,6.04-9.189,9.391c-10.12,12-17.11,26.72-19.67,42.89c-0.73,4.521-1.101,9.15-1.101,13.87c0,0.01,0,0.01,0,0.02
		c0,3.45,0.2,6.851,0.601,10.2c0.35,3.12,0.869,6.19,1.55,9.2c8.859,39.311,44.06,68.76,86.02,68.76
		c48.61,0,88.17-39.55,88.17-88.16C372.089,264.934,339.049,228.074,296.249,222.063z M283.919,387.523
		c-36.41,0-67.08-25.01-75.729-58.76c-0.771-3-1.37-6.07-1.771-9.2c-0.439-3.34-0.67-6.739-0.67-10.2c0-3.14,0.19-6.229,0.55-9.27
		c1.301-10.95,4.87-21.21,10.221-30.29c2.649-4.49,5.729-8.7,9.189-12.56c3.181-3.551,6.681-6.811,10.46-9.73
		c2.931-2.27,6.021-4.33,9.26-6.17c6.171-3.51,12.87-6.2,19.94-7.92c2.93-0.72,5.92-1.271,8.97-1.64
		c3.141-0.391,6.34-0.591,9.58-0.591c1.11,0,2.21,0.021,3.3,0.07c3.061,0.13,6.07,0.43,9.03,0.9
		c37.26,5.93,65.84,38.29,65.84,77.199C362.089,352.464,327.02,387.523,283.919,387.523z M196.85,295.474v4.62h9.449
		c1.301-10.95,4.87-21.21,10.221-30.29v-17.22C206.399,264.584,199.409,279.304,196.85,295.474z"/>
</g>
</svg>
