<?xml version="1.0" encoding="utf-8"?>
<!-- Generator: Adobe Illustrator 16.0.0, SVG Export Plug-In . SVG Version: 6.00 Build 0)  -->
<!DOCTYPE svg PUBLIC "-//W3C//DTD SVG 1.1//EN" "http://www.w3.org/Graphics/SVG/1.1/DTD/svg11.dtd">
<svg version="1.1" id="Layer_1" xmlns="http://www.w3.org/2000/svg" xmlns:xlink="http://www.w3.org/1999/xlink" x="0px" y="0px"
	 width="400px" height="400px" viewBox="0 0 400 400" enable-background="new 0 0 400 400" xml:space="preserve">
<g>
	<path fill-rule="evenodd" clip-rule="evenodd" fill="#FFFFFF" d="M169.66,108.737c-13.754-10.586-19.031-24.335-18.326-40.77
		c0.213-4.99-0.049-10,0.053-14.997c0.354-17.484,12.16-31.4,29.52-33.178c9.865-1.011,20.043-0.816,29.898,0.361
		c15.504,1.854,27.111,15.727,27.473,31.368c0.174,7.621,0.221,15.254,0,22.872c-0.412,14.103-6.525,25.403-17.82,34.294
		c3.029,4.027,5.467,7.606,11.334,8.548c22.9,3.673,39.785,23.606,40.387,46.823c0.168,6.496,0.072,12.999,0.051,19.498
		c-0.031,8.862-4.236,13.108-13.08,13.114c-29.625,0.023-59.248,0.009-88.873,0.009c-13.123,0-26.248,0.017-39.373-0.006
		c-9.029-0.017-13.561-4.335-13.332-13.251c0.258-10.089-0.248-20.395,1.658-30.2c3.789-19.482,21.143-34.223,40.908-36.403
		C165.117,116.271,166.9,112.329,169.66,108.737z M149.742,185.167c0-1.384-0.002-2.601,0-3.817
		c0.004-5.248-0.09-10.499,0.047-15.743c0.094-3.62,2.277-5.568,5.721-5.504c3.275,0.061,5.299,1.947,5.453,5.397
		c0.146,3.242,0.047,6.495,0.049,9.743c0.004,3.31,0.002,6.618,0.002,9.788c22.918,0,45.209,0,67.748,0
		c0-6.43-0.098-12.54,0.031-18.648c0.102-4.749,3.063-7.138,7.26-6.093c3.33,0.828,4.012,3.379,4.012,6.34
		c0,6.097,0,12.192,0,18.497c7.115,0,13.785,0,20.777,0c0-7.555,0.203-14.897-0.041-22.226
		c-0.574-17.129-13.514-31.766-30.359-34.687c-2.254-0.392-3.943,0.043-5.65,1.796c-7.846,8.055-15.85,15.953-23.803,23.902
		c-5.092,5.09-7.072,5.102-12.064,0.111c-7.953-7.949-15.973-15.832-23.813-23.891c-1.809-1.858-3.566-2.415-5.961-1.838
		c-14.568,3.507-25.01,12.205-28.543,26.674c-2.348,9.61-1.744,19.941-2.48,30.197C135.947,185.167,142.637,185.167,149.742,185.167
		z M228.012,62.189c-12.27,6.31-22.127,3.872-30.844-5.464c-8.668,11.389-20.113,16.446-34.225,14.835
		c-0.168,0.784-0.299,1.137-0.313,1.494c-0.568,15.911,12.23,30.915,27.758,32.55c18.24,1.922,34.057-9.18,36.631-26.068
		C227.84,74.151,227.676,68.616,228.012,62.189z M162.66,54.093c-0.051,5.879-0.051,5.851,5.953,5.842
		c7.201-0.012,13.148-2.837,17.738-8.26c1.992-2.354,3.195-5.373,5.162-7.757c1.305-1.58,3.295-3.492,5.039-3.557
		c1.734-0.064,3.781,1.756,5.264,3.192c1.766,1.711,2.865,4.104,4.617,5.834c5.912,5.836,12.271,5.913,18.711,0.615
		c1.6-1.316,1.918-2.494,1.211-4.477c-3.102-8.673-11.363-14.687-20.984-14.862c-6.371-0.115-12.748-0.04-19.123-0.022
		C172.086,30.682,162.783,39.939,162.66,54.093z M194.402,142.06c6.959-6.303,14.422-13.061,21.883-19.816
		c-2.098-3.066-3.902-5.708-5.783-8.459c-10.334,4.065-20.59,3.482-30.596,0.052c-2.199,3.016-4.166,5.712-6.482,8.889
		C180.771,129.495,188.102,136.253,194.402,142.06z"/>
	<path fill-rule="evenodd" clip-rule="evenodd" fill="#FFFFFF" d="M264.803,369.571c3.426-23.4,15.625-39.547,37.17-49.199
		c-9.205-8.519-13.324-18.89-10.887-31.263c1.639-8.317,6.242-14.909,13.141-19.816c13.477-9.588,31.662-7.224,42.635,5.363
		c10.193,11.692,11.748,31.752-3.549,45.687c1.236,0.626,2.377,1.198,3.514,1.779c20.871,10.669,32.297,27.631,33.838,51.07
		c0.383,5.817-1.555,7.655-7.408,7.655c-55.24,0.01-110.482,0.006-165.725,0c-0.998,0-2.029,0.076-2.988-0.137
		c-3.143-0.699-4.701-2.779-4.479-5.957c0.207-2.999,1.9-4.97,4.971-5.088c4.744-0.183,9.496-0.09,14.246-0.092
		c13.748-0.008,27.494-0.003,41.242-0.003C261.877,369.571,263.23,369.571,264.803,369.571z M369.189,369.433
		c-2.633-24.669-24.879-42.64-50.346-40.991c-21.918,1.418-43.061,21.646-42.699,40.991
		C307.072,369.433,338.004,369.433,369.189,369.433z M343.367,296.127c0.006-11.258-9.426-20.826-20.639-20.936
		c-11.301-0.111-21.008,9.586-20.998,20.973c0.012,11.445,9.207,20.766,20.6,20.878
		C333.688,317.153,343.359,307.536,343.367,296.127z"/>
	<path fill-rule="evenodd" clip-rule="evenodd" fill="#FFFFFF" d="M98.881,320.465c21.211,9.442,33.445,25.703,36.887,49.106
		c1.273,0,2.607,0,3.939,0c12.123,0,24.246-0.018,36.367,0.009c4.703,0.011,6.816,1.747,6.871,5.494
		c0.059,3.88-2.178,5.771-7.02,5.771c-49.865,0.012-99.73,0.014-149.596-0.002c-5.348-0.002-7.332-1.931-7.008-7.307
		c1.455-24.143,13.408-41.246,35.039-51.762c0.891-0.435,1.822-0.791,3.127-1.351c-8.736-8.106-12.969-17.821-11.246-29.639
		c1.189-8.142,5.211-14.76,11.471-20.012c12.424-10.421,30.924-9.77,42.377,1.441C113.584,285.426,113.195,302.711,98.881,320.465z
		 M124.607,369.422c-2.277-24.248-24.408-42.302-49.9-40.998c-21.939,1.122-43.219,21.267-43.152,40.998
		C62.479,369.422,93.402,369.422,124.607,369.422z M56.631,296.13c0.006,11.273,9.514,20.868,20.729,20.918
		c11.189,0.049,20.801-9.495,20.906-20.763c0.105-11.388-9.602-21.167-20.939-21.096C66.102,275.26,56.625,284.848,56.631,296.13z"
		/>
	<path fill-rule="evenodd" clip-rule="evenodd" fill="#FFFFFF" d="M252.836,311.745c-0.57-2.771-1.016-4.563-1.301-6.38
		c-0.533-3.402,1.254-6.266,4.223-6.917c2.748-0.602,5.973,1.063,6.705,4.104c1.781,7.396,3.479,14.833,4.689,22.337
		c0.535,3.319-1.756,5.661-5.109,6.381c-6.834,1.467-13.684,2.865-20.549,4.17c-3.525,0.668-6.295-1.07-6.949-4.076
		c-0.703-3.224,1.111-6.088,4.643-6.958c2.738-0.676,5.547-1.079,9.311-1.791c-7.898-5.924-15.111-11.332-22.332-16.749
		c-14.146,20.152-41.162,19.968-55.135-0.004c-7.238,5.427-14.467,10.847-22.338,16.748c3.512,0.842,6.238,1.454,8.941,2.155
		c3.748,0.972,5.494,3.357,5.014,6.729c-0.467,3.259-2.99,5.2-6.945,4.513c-7.125-1.237-14.207-2.766-21.246-4.429
		c-3.406-0.806-4.959-3.464-4.32-6.858c1.361-7.233,2.869-14.445,4.553-21.61c0.773-3.293,3.721-4.771,6.955-4.007
		c2.814,0.666,4.617,3.53,4.123,6.635c-0.156,0.983-0.461,1.943-0.68,2.917c-0.213,0.947-0.404,1.899-0.775,3.657
		c7.477-5.606,14.365-10.719,21.16-15.952c0.609-0.468,0.879-1.717,0.867-2.598c-0.25-20.215,6.48-30.08,25.016-36.791
		c0.832-0.301,1.783-1.701,1.797-2.603c0.135-8.869,0.08-17.741,0.08-27.633c-2.318,2.064-4.064,3.666-5.859,5.209
		c-2.988,2.566-5.977,2.629-8.301,0.224c-2.322-2.403-2.191-5.461,0.557-8.266c4.898-5,9.842-9.957,14.85-14.846
		c2.994-2.923,5.852-2.92,8.828,0.074c4.934,4.963,9.785,10.011,14.566,15.12c2.451,2.618,2.389,5.777,0.125,8.016
		c-2.297,2.271-5.313,2.229-8.023-0.168c-0.936-0.826-1.768-1.768-2.664-2.637c-0.883-0.857-1.789-1.688-3.422-3.222
		c0,3.956,0,7.11,0,10.265c0,5.5,0.061,11-0.029,16.497c-0.033,1.976,0.313,3.061,2.582,3.661
		c16.512,4.368,26.855,20.363,24.439,35.999c-0.148,0.968,0.055,2.503,0.695,3.001C238.344,300.927,245.236,306.035,252.836,311.745
		z M198.248,266.813c-11.863,0.026-21.459,9.626-21.432,21.439c0.025,11.791,9.686,21.388,21.523,21.384
		c11.869-0.005,21.361-9.558,21.338-21.475C219.652,276.219,210.186,266.788,198.248,266.813z"/>
	<path fill-rule="evenodd" clip-rule="evenodd" fill="#FFFFFF" d="M40.188,220.958c3.039-65.676,30.785-112.861,86.111-143.234
		c2.678-1.47,5.328-2.496,7.826,0.166c2.875,3.064,1.969,6.965-2.203,9.118c-12.854,6.634-24.639,14.778-35.008,24.874
		c-25.615,24.934-40.262,55.238-44.016,90.764c-1.719,16.275-0.998,32.438,2.871,48.406c1.039,4.288-0.453,6.985-4.109,7.838
		c-3.24,0.754-6.023-1.151-6.688-5.323C43.092,241.758,41.484,229.904,40.188,220.958z"/>
	<path fill-rule="evenodd" clip-rule="evenodd" fill="#FFFFFF" d="M357.256,221.171c-0.842,6.596-2.137,16.978-3.504,27.351
		c-0.41,3.108-2.297,4.97-5.424,5.292c-3.793,0.389-5.83-2.259-5.129-6.17c9.311-51.937-3.547-97.227-40.877-134.994
		c-10.518-10.642-22.811-18.986-36.154-25.771c-1.416-0.72-3.439-1.561-3.793-2.756c-0.604-2.033-0.848-4.807,0.105-6.522
		c1.533-2.769,4.684-2.845,7.27-1.241c9.107,5.646,18.727,10.699,27.039,17.363C336.229,125.343,355.848,166.864,357.256,221.171z"
		/>
</g>
</svg>
