<?xml version="1.0" encoding="utf-8"?>
<!-- Generator: Adobe Illustrator 16.0.0, SVG Export Plug-In . SVG Version: 6.00 Build 0)  -->
<!DOCTYPE svg PUBLIC "-//W3C//DTD SVG 1.1//EN" "http://www.w3.org/Graphics/SVG/1.1/DTD/svg11.dtd">
<svg version="1.1" id="Layer_1" xmlns="http://www.w3.org/2000/svg" xmlns:xlink="http://www.w3.org/1999/xlink" x="0px" y="0px"
	 width="400px" height="400px" viewBox="0 0 400 400" enable-background="new 0 0 400 400" xml:space="preserve">
<g>
	<path fill-rule="evenodd" clip-rule="evenodd" fill="#FFFFFF" d="M375.479,391.976c-116.986,0-233.971,0-350.957,0
		c-8.521-2.477-14.127-7.869-16.498-16.498c0-2.498,0-5,0-7.498c0.238-0.416,0.555-0.807,0.702-1.252
		c3.208-9.635,9.931-14.568,20.139-14.74c1.462-0.025,2.925-0.004,4.726-0.004c0-2.068,0-3.668,0-5.266
		c0-85.063,0-170.125,0-255.188c0-21.109-0.027-42.219,0.015-63.328c0.021-9.789,5.079-16.543,14.39-19.497
		c0.451-0.143,0.852-0.45,1.274-0.681c61.743,0,123.485,0,185.228,0c11.957,3.801,15.836,12.315,15.742,24.381
		c-0.33,42.6-0.129,85.204-0.129,127.807c0,1.439,0,2.878,0,4.543c2.035,0,3.518,0,5,0c31.357,0,62.717-0.001,94.076,0
		c12.004,0,17.223,5.274,17.223,17.417c0.002,54.971,0.002,109.94,0.002,164.913c0,1.475,0,2.949,0,4.902
		c1.92,0,3.508,0.014,5.094-0.002c5.938-0.059,11.223,1.816,14.98,6.41c2.299,2.811,3.691,6.363,5.492,9.584c0,2.498,0,5,0,7.498
		C389.586,384.087,384.006,389.505,375.479,391.976z M355.16,351.745c0-1.574,0-2.916,0-4.256c0-55.107,0.002-110.216,0-165.323
		c0-5.864-0.299-6.162-6.121-6.162c-51.484-0.002-102.969-0.001-154.453-0.001c-6.74,0-6.742,0.001-6.744,6.592
		c-0.001,41.362,0.008,82.724-0.013,124.086c-0.002,4.643-2.179,7.297-5.744,7.256c-3.442-0.041-5.478-2.57-5.479-7.031
		c-0.016-42.362-0.033-84.724,0.01-127.085c0.01-9.38,5.863-15.045,15.33-15.06c14.246-0.023,28.492-0.006,42.736-0.006
		c1.313,0,2.625,0,4.18,0c0-1.809,0-3.042,0-4.274c0-43.486,0.002-86.973-0.002-130.459c-0.002-8.129-2.611-10.721-10.779-10.721
		c-57.482-0.003-114.965-0.003-172.447,0c-8.219,0-10.792,2.548-10.792,10.688c-0.003,105.843-0.001,211.685-0.001,317.527
		c0,1.336,0,2.674,0,4.195c44.063,0,87.718,0,131.754,0c0-1.609-0.002-2.953,0-4.297c0.008-4.25-0.076-8.5,0.056-12.746
		c0.103-3.291,2.363-5.541,5.326-5.637c2.952-0.096,5.433,2.021,5.754,5.273c0.245,2.477,0.101,4.992,0.11,7.49
		c0.011,3.305,0.002,6.609,0.002,9.949C243.92,351.745,299.346,351.745,355.16,351.745z M199.6,380.7
		c56.355,0,112.713,0.002,169.068-0.004c1.498-0.002,3.021,0.082,4.49-0.145c4.48-0.688,7.67-4.52,7.537-8.885
		c-0.135-4.447-3.453-7.918-8.049-8.336c-1.365-0.123-2.746-0.098-4.119-0.098c-112.34-0.004-224.676-0.004-337.014,0.002
		c-1.499,0-3.008-0.027-4.493,0.133c-4.077,0.439-7.175,3.518-7.677,7.506c-0.494,3.916,1.809,7.875,5.67,9.105
		c1.852,0.59,3.921,0.691,5.891,0.693C87.137,380.708,143.367,380.7,199.6,380.7z"/>
	<path fill-rule="evenodd" clip-rule="evenodd" fill="#FFFFFF" d="M321.42,129.165c15.654-12.442,28.832-26.248,34.67-45.719
		c0.566-1.895,1.744-4.207,3.314-5.028c1.518-0.793,4.639-0.651,5.74,0.425c1.395,1.361,2.486,4.423,1.912,6.158
		c-2.137,6.477-4.439,13.025-7.721,18.973c-7.6,13.771-18.584,24.665-31.113,34.024c-3.977,2.971-8.502,3.644-12.564,0.687
		c-18.254-13.293-32.959-29.513-39.629-51.624c-6.682-22.144-0.148-42.727,17.029-55.59c24.986-18.712,61.592-8.117,72.787,21.066
		c1.83,4.771,1.107,7.929-2.137,9.322c-3.512,1.509-6.328-0.241-8.305-5.159c-5.977-14.87-19.359-23.632-35.471-23.223
		c-14.973,0.381-28.396,10.318-33.203,24.871c-4.328,13.097-1.316,25.423,4.766,37.182
		C298.52,109.104,308.967,119.726,321.42,129.165z"/>
	<path fill-rule="evenodd" clip-rule="evenodd" fill="#FFFFFF" d="M347.863,69.924c0.012,14.806-11.877,26.661-26.676,26.603
		c-14.506-0.058-26.449-12.035-26.473-26.549c-0.023-14.615,12.152-26.724,26.793-26.642
		C336.078,43.417,347.854,55.295,347.863,69.924z M336.613,69.807c-0.057-8.418-6.844-15.201-15.229-15.225
		c-8.451-0.023-15.525,7.094-15.416,15.513c0.105,8.351,6.984,15.162,15.332,15.181C329.881,85.295,336.672,78.437,336.613,69.807z"
		/>
	<path fill-rule="evenodd" clip-rule="evenodd" fill="#FFFFFF" d="M141.822,253.063c3.744,0,7.488-0.068,11.23,0.016
		c6.729,0.148,11.306,4.494,11.478,11.25c0.194,7.606,0.214,15.229-0.011,22.835c-0.197,6.719-4.893,11.059-11.611,11.117
		c-7.363,0.061-14.727,0.061-22.09,0c-6.858-0.057-11.556-4.596-11.677-11.451c-0.132-7.484-0.146-14.977,0.007-22.462
		c0.136-6.695,4.736-11.135,11.441-11.287C134.332,252.994,138.078,253.064,141.822,253.063z M130.663,264.523
		c0,7.593,0,14.966,0,22.325c7.624,0,14.937,0,22.347,0c0-7.564,0-14.926,0-22.325C145.374,264.523,138.071,264.523,130.663,264.523
		z"/>
	<path fill-rule="evenodd" clip-rule="evenodd" fill="#FFFFFF" d="M141.792,157.969c-3.745-0.002-7.492,0.093-11.233-0.022
		c-6.612-0.203-11.277-4.788-11.41-11.413c-0.148-7.487-0.137-14.98-0.006-22.468c0.115-6.551,4.428-11.212,10.955-11.441
		c7.854-0.276,15.732-0.28,23.584,0.012c6.381,0.237,10.664,4.736,10.84,11.151c0.207,7.609,0.205,15.231,0.006,22.841
		c-0.174,6.681-4.843,11.14-11.502,11.323C149.283,158.056,145.537,157.971,141.792,157.969z M130.555,146.509
		c7.599,0,14.996,0,22.496,0c0-7.61,0-14.995,0-22.433c-7.691,0-15.087,0-22.496,0C130.555,131.705,130.555,139.016,130.555,146.509
		z"/>
	<path fill-rule="evenodd" clip-rule="evenodd" fill="#FFFFFF" d="M61.857,135.301c0.001-3.743-0.063-7.488,0.016-11.23
		c0.135-6.481,4.098-11.124,10.488-11.396c8.094-0.346,16.227-0.354,24.319,0.014c6.364,0.289,10.332,4.995,10.398,11.481
		c0.075,7.361,0.075,14.725,0.001,22.087c-0.071,7.061-4.65,11.612-11.801,11.699c-7.236,0.088-14.475,0.095-21.711-0.004
		c-7.129-0.097-11.58-4.64-11.701-11.794C61.805,142.539,61.855,138.919,61.857,135.301z M95.592,146.587c0-7.687,0-15.082,0-22.585
		c-7.553,0-14.846,0-22.223,0c0,7.646,0,15.046,0,22.585C80.834,146.587,88.031,146.587,95.592,146.587z"/>
	<path fill-rule="evenodd" clip-rule="evenodd" fill="#FFFFFF" d="M221.833,135.162c-0.005,3.868,0.077,7.739-0.022,11.604
		c-0.163,6.296-4.521,10.961-10.803,11.134c-7.855,0.215-15.725,0.211-23.58,0c-6.266-0.168-10.687-4.823-10.791-11.131
		c-0.124-7.609-0.111-15.224-0.008-22.834c0.086-6.412,4.194-11.021,10.609-11.282c7.971-0.326,15.977-0.331,23.947,0
		c6.537,0.271,10.543,4.978,10.643,11.653C221.882,127.924,221.838,131.544,221.833,135.162z M210.4,146.536
		c0-7.7,0-15.018,0-22.443c-7.566,0-14.937,0-22.354,0c0,7.641,0,14.945,0,22.443C195.543,146.536,202.835,146.536,210.4,146.536z"
		/>
	<path fill-rule="evenodd" clip-rule="evenodd" fill="#FFFFFF" d="M141.723,87.646c-3.743-0.002-7.488,0.065-11.23-0.017
		c-6.496-0.143-11.162-4.53-11.326-11.012c-0.193-7.732-0.201-15.478,0.004-23.21c0.172-6.462,4.887-10.885,11.373-10.958
		c7.487-0.084,14.977-0.075,22.464-0.003c6.565,0.063,11.261,4.29,11.487,10.825c0.271,7.853,0.277,15.729-0.004,23.581
		c-0.232,6.504-4.948,10.671-11.535,10.782C149.212,87.699,145.467,87.646,141.723,87.646z M130.564,76.158
		c7.606,0,14.998,0,22.555,0c0-7.525,0-14.807,0-22.248c-7.617,0-15.012,0-22.555,0C130.564,61.429,130.564,68.709,130.564,76.158z"
		/>
	<path fill-rule="evenodd" clip-rule="evenodd" fill="#FFFFFF" d="M141.928,182.78c3.619,0,7.24-0.041,10.859,0.008
		c6.713,0.092,11.51,4.407,11.721,11.054c0.245,7.73,0.234,15.48,0.003,23.212c-0.192,6.409-4.544,10.804-10.961,11.007
		c-7.854,0.25-15.73,0.26-23.584-0.018c-6.339-0.223-10.671-4.814-10.81-11.164c-0.166-7.611-0.171-15.23,0-22.84
		c0.147-6.614,4.914-11.131,11.538-11.246C134.438,182.727,138.184,182.781,141.928,182.78z M130.573,194.206
		c0,7.665,0,14.974,0,22.419c7.642,0,15.06,0,22.533,0c0-7.613,0-14.928,0-22.419C145.549,194.206,138.223,194.206,130.573,194.206z
		"/>
	<path fill-rule="evenodd" clip-rule="evenodd" fill="#FFFFFF" d="M61.863,205.459c0.004-3.869-0.092-7.739,0.024-11.604
		c0.194-6.438,4.774-10.968,11.251-11.051c7.609-0.098,15.224-0.114,22.834,0.007c6.419,0.102,11,4.741,11.092,11.209
		c0.109,7.609,0.104,15.224,0.002,22.834c-0.082,6.242-4.123,10.868-10.326,11.134c-8.094,0.344-16.223,0.336-24.318,0.029
		c-6.377-0.242-10.408-4.868-10.549-11.329C61.793,212.947,61.859,209.203,61.863,205.459z M95.686,194.273
		c-7.732,0-15.018,0-22.418,0c0,7.553,0,14.857,0,22.375c7.551,0,14.934,0,22.418,0C95.686,209.072,95.686,201.77,95.686,194.273z"
		/>
	<path fill-rule="evenodd" clip-rule="evenodd" fill="#FFFFFF" d="M107.088,65.376c0.001,3.743,0.084,7.488-0.018,11.228
		c-0.172,6.337-4.572,10.885-10.862,10.997c-7.857,0.141-15.722,0.145-23.579-0.005c-6.096-0.116-10.589-4.607-10.714-10.736
		c-0.16-7.856-0.158-15.721-0.004-23.578c0.124-6.303,4.688-10.733,11.022-10.821c7.733-0.107,15.472-0.117,23.205,0.006
		c6.283,0.1,10.752,4.631,10.928,10.934C107.178,57.389,107.088,61.383,107.088,65.376z M73.246,76.163c7.705,0,14.994,0,22.404,0
		c0-7.528,0-14.817,0-22.191c-7.589,0-14.972,0-22.404,0C73.246,61.471,73.246,68.673,73.246,76.163z"/>
	<path fill-rule="evenodd" clip-rule="evenodd" fill="#FFFFFF" d="M221.828,64.934c0.002,3.867,0.082,7.737-0.016,11.603
		c-0.164,6.516-4.616,10.988-11.168,11.083c-7.609,0.109-15.223,0.106-22.832,0.001c-6.542-0.092-11.068-4.548-11.176-11.065
		c-0.127-7.732-0.136-15.472,0.011-23.204c0.119-6.329,4.644-10.794,10.958-10.888c7.734-0.115,15.472-0.114,23.206-0.001
		c6.304,0.093,10.8,4.588,10.992,10.869C221.921,57.195,221.824,61.066,221.828,64.934z M210.379,76.28c0-7.672,0-14.961,0-22.296
		c-7.604,0-14.986,0-22.245,0c0,7.604,0,14.895,0,22.296C195.628,76.28,202.83,76.28,210.379,76.28z"/>
	<path fill-rule="evenodd" clip-rule="evenodd" fill="#FFFFFF" d="M107.088,275.763c-0.002,3.867,0.094,7.738-0.024,11.602
		c-0.19,6.273-4.704,10.803-10.979,10.896c-7.732,0.115-15.471,0.113-23.205,0c-6.287-0.09-10.854-4.58-10.972-10.883
		c-0.147-7.857-0.155-15.723,0.011-23.579c0.131-6.117,4.615-10.559,10.766-10.682c7.857-0.156,15.723-0.164,23.578,0
		c6.321,0.133,10.648,4.672,10.811,11.043C107.17,268.024,107.09,271.896,107.088,275.763z M95.65,286.915c0-7.613,0-14.906,0-22.3
		c-7.58,0-14.957,0-22.275,0c0,7.601,0,14.89,0,22.3C80.853,286.915,88.056,286.915,95.65,286.915z"/>
	<path fill-rule="evenodd" clip-rule="evenodd" fill="#FFFFFF" d="M341.816,306.888c-0.002,3.494,0.078,6.99-0.021,10.484
		c-0.154,5.361-3.363,9.266-8.615,9.502c-7.842,0.35-15.719,0.334-23.563,0.02c-5.033-0.201-8.42-3.625-8.627-8.678
		c-0.311-7.596-0.313-15.227,0.012-22.82c0.215-5.033,3.66-8.422,8.697-8.617c7.723-0.301,15.475-0.326,23.197-0.016
		c5.467,0.219,8.754,4.098,8.902,9.641C341.893,299.896,341.816,303.392,341.816,306.888z M330.256,315.718
		c0-6.117,0-11.881,0-17.547c-6.225,0-12.117,0-17.947,0c0,6.029,0,11.697,0,17.547
		C318.398,315.718,324.207,315.718,330.256,315.718z"/>
	<path fill-rule="evenodd" clip-rule="evenodd" fill="#FFFFFF" d="M242.037,307.112c-0.002,3.369,0.068,6.742-0.018,10.109
		c-0.141,5.535-3.406,9.449-8.865,9.684c-7.719,0.334-15.473,0.322-23.193,0.012c-5.182-0.207-8.62-3.695-8.845-8.922
		c-0.316-7.348-0.313-14.729-0.034-22.08c0.209-5.504,3.855-9.035,9.404-9.223c7.355-0.248,14.731-0.26,22.086-0.004
		c5.869,0.203,9.328,4.072,9.453,9.939C242.102,300.12,242.039,303.618,242.037,307.112z M212.401,315.595
		c6.175,0,12.176,0,18.183,0c0-6.01,0-11.701,0-17.521c-6.137,0-12.059,0-18.183,0C212.401,304.011,212.401,309.687,212.401,315.595
		z"/>
	<path fill-rule="evenodd" clip-rule="evenodd" fill="#FFFFFF" d="M221.729,194.697c3.496,0.002,6.993-0.064,10.487,0.017
		c5.807,0.135,9.68,3.854,9.783,9.601c0.127,6.988,0.113,13.983,0.008,20.973c-0.086,5.76-3.859,9.705-9.596,9.844
		c-7.238,0.174-14.484,0.162-21.723,0c-5.406-0.121-9.338-3.686-9.577-9.096c-0.325-7.35-0.329-14.734-0.032-22.086
		c0.232-5.774,4.254-9.154,10.162-9.244C214.737,194.652,218.234,194.696,221.729,194.697z M212.42,223.68
		c6.268,0,12.197,0,18.191,0c0-5.956,0-11.65,0-17.541c-6.113,0-12.039,0-18.191,0C212.42,212.002,212.42,217.689,212.42,223.68z"/>
	<path fill-rule="evenodd" clip-rule="evenodd" fill="#FFFFFF" d="M271.381,286.606c3.619,0,7.248-0.158,10.857,0.035
		c5.906,0.316,9.537,3.844,9.725,9.752c0.223,6.982,0.227,13.982-0.006,20.965c-0.191,5.777-3.672,9.408-9.406,9.633
		c-7.35,0.289-14.729,0.295-22.08,0.014c-6.057-0.232-9.449-4.131-9.508-10.266c-0.064-6.615-0.068-13.23,0.002-19.846
		c0.064-6.256,3.639-9.98,9.934-10.273c3.486-0.162,6.988-0.029,10.482-0.029C271.381,286.597,271.381,286.601,271.381,286.606z
		 M280.588,315.726c0-6.045,0-11.723,0-17.572c-6.207,0-12.201,0-18.16,0c0,6.027,0,11.711,0,17.572
		C268.486,315.726,274.311,315.726,280.588,315.726z"/>
	<path fill-rule="evenodd" clip-rule="evenodd" fill="#FFFFFF" d="M271.408,194.696c3.494,0,6.992-0.05,10.486,0.012
		c5.85,0.104,9.797,3.557,10.033,9.386c0.285,7.105,0.268,14.236,0.027,21.344c-0.203,5.984-4.164,9.629-10.176,9.723
		c-6.865,0.105-13.734,0.102-20.6,0c-6.363-0.094-10.154-3.984-10.217-10.391c-0.066-6.617-0.07-13.234,0.002-19.852
		c0.07-6.405,3.877-10.128,10.33-10.215C264.666,194.658,268.035,194.696,271.408,194.696z M280.553,223.78c0-6.14,0-11.827,0-17.62
		c-6.174,0-12.104,0-18.068,0c0,6.002,0,11.781,0,17.62C268.609,223.78,274.441,223.78,280.553,223.78z"/>
	<path fill-rule="evenodd" clip-rule="evenodd" fill="#FFFFFF" d="M221.379,281.069c-3.494,0-6.992,0.078-10.485-0.018
		c-5.655-0.152-9.581-3.574-9.81-9.217c-0.297-7.353-0.295-14.735,0.022-22.087c0.233-5.406,4.117-8.979,9.56-9.123
		c7.234-0.189,14.483-0.197,21.719,0c5.779,0.156,9.535,4.088,9.623,9.822c0.107,6.99,0.119,13.984-0.006,20.974
		c-0.102,5.762-3.926,9.469-9.762,9.629C228.623,281.149,225,281.069,221.379,281.069z M230.611,252.107c-6.36,0-12.256,0-18.201,0
		c0,5.977,0,11.646,0,17.435c6.211,0,12.202,0,18.201,0C230.611,263.568,230.611,257.893,230.611,252.107z"/>
	<path fill-rule="evenodd" clip-rule="evenodd" fill="#FFFFFF" d="M271.463,281.069c-3.619-0.004-7.244,0.086-10.861-0.025
		c-5.742-0.178-9.537-3.99-9.623-9.775c-0.104-6.989-0.111-13.983,0.01-20.974c0.096-5.547,3.797-9.475,9.393-9.648
		c7.359-0.23,14.736-0.223,22.094-0.008c5.416,0.158,9.201,3.803,9.426,9.262c0.299,7.229,0.301,14.486,0.029,21.716
		c-0.221,5.867-4.096,9.301-9.979,9.443C278.457,281.144,274.959,281.075,271.463,281.069z M280.607,252.061
		c-6.344,0-12.254,0-18.135,0c0,6.035,0,11.807,0,17.505c6.188,0,12.09,0,18.135,0C280.607,263.629,280.607,257.963,280.607,252.061
		z"/>
	<path fill-rule="evenodd" clip-rule="evenodd" fill="#FFFFFF" d="M321.434,194.705c3.619,0.001,7.242-0.086,10.859,0.021
		c5.553,0.164,9.379,3.92,9.484,9.491c0.133,7.113,0.133,14.232,0,21.346c-0.102,5.531-3.889,9.418-9.465,9.559
		c-7.361,0.188-14.732,0.191-22.092-0.01c-5.225-0.141-9.033-3.715-9.25-8.977c-0.309-7.474-0.322-14.98-0.006-22.453
		c0.23-5.466,4.148-8.828,9.607-8.962C314.191,194.632,317.813,194.703,321.434,194.705z M312.277,223.698c6.168,0,12.082,0,18.01,0
		c0-6.019,0-11.792,0-17.602c-6.125,0-11.955,0-18.01,0C312.277,212.039,312.277,217.826,312.277,223.698z"/>
	<path fill-rule="evenodd" clip-rule="evenodd" fill="#FFFFFF" d="M321.227,281.058c-3.619,0-7.242,0.1-10.857-0.025
		c-5.297-0.18-9.145-3.486-9.373-8.787c-0.33-7.595-0.328-15.228,0.006-22.823c0.229-5.195,4.107-8.652,9.426-8.795
		c7.234-0.191,14.482-0.199,21.717-0.004c5.947,0.16,9.586,4.105,9.66,10.158c0.084,6.738,0.088,13.48-0.002,20.222
		c-0.084,6.236-3.828,9.928-10.09,10.059c-3.494,0.074-6.99,0.014-10.486,0.014C321.227,281.069,321.227,281.063,321.227,281.058z
		 M312.227,269.515c6.398,0,12.311,0,18.111,0c0-6.013,0-11.702,0-17.448c-6.148,0-12.051,0-18.111,0
		C312.227,258.018,312.227,263.705,312.227,269.515z"/>
</g>
</svg>
