<?xml version="1.0" encoding="utf-8"?>
<!-- Generator: Adobe Illustrator 16.0.0, SVG Export Plug-In . SVG Version: 6.00 Build 0)  -->
<!DOCTYPE svg PUBLIC "-//W3C//DTD SVG 1.1//EN" "http://www.w3.org/Graphics/SVG/1.1/DTD/svg11.dtd">
<svg version="1.1" id="Layer_1" xmlns="http://www.w3.org/2000/svg" xmlns:xlink="http://www.w3.org/1999/xlink" x="0px" y="0px"
	 width="400px" height="400px" viewBox="0 0 400 400" enable-background="new 0 0 400 400" xml:space="preserve">
<g>
	<path fill-rule="evenodd" clip-rule="evenodd" fill="#FFFFFF" d="M161.796,272.53c-27.175-26.321-19.547-59.161-2.438-75.434
		c20.92-19.903,51.152-18.664,74.366,4.36c0-4.58-0.039-8.139,0.007-11.698c0.183-13.909,9.484-23.549,23.211-23.594
		c33.219-0.111,66.44-0.111,99.658,0c13.447,0.045,23.097,9.544,23.122,22.938c0.108,54.039,0.117,108.079-0.008,162.118
		c-0.03,13.031-9.641,22.621-22.66,22.681c-33.453,0.157-66.914,0.447-100.354-0.229c-8.276-0.167-16.297-0.8-24.752-0.269
		c-24.935,1.563-50.029,0.61-75.061,0.529c-8.748-0.027-13.592-4.266-12.852-12.846c1.077-12.449,0.342-24.96,0.393-37.317
		c0.043-10.669,0.423-21.577-0.319-32.399C143.037,275.74,145.808,273.471,161.796,272.53z M368.536,269.892
		c0-25.955,0.018-51.909-0.01-77.865c-0.011-10.94-3.748-14.646-14.758-14.653c-31.332-0.021-62.666-0.021-93.998-0.002
		c-11.071,0.009-14.796,3.668-14.8,14.599c-0.02,52.144-0.022,104.286,0.003,156.431c0.004,10.501,3.836,14.306,14.389,14.314
		c31.566,0.029,63.133,0.029,94.7,0c10.589-0.009,14.446-3.801,14.461-14.256C368.561,322.27,368.536,296.079,368.536,269.892z
		 M194.358,272.854c21.591,0.006,39.279-17.58,39.363-39.129c0.083-21.9-17.708-39.621-39.667-39.51
		c-21.548,0.108-39.066,17.848-38.978,39.469C155.166,255.311,172.753,272.846,194.358,272.854z M194.405,284.092
		c-11.465,0-22.938,0.296-34.387-0.137c-4.962-0.189-5.022,2.053-5.025,5.753c-0.002,3.709,0.091,5.816,5.027,5.748
		c22.923-0.31,45.856-0.313,68.779,0c4.945,0.068,5.019-2.053,5.021-5.753c0.004-3.709-0.074-5.938-5.029-5.748
		C217.346,284.388,205.87,284.092,194.405,284.092z M194.221,317.786c11.229,0,22.465-0.165,33.689,0.086
		c4.215,0.094,6.24-0.523,5.991-5.519c-0.21-4.198-0.673-5.994-5.614-5.928c-22.69,0.305-45.389,0.285-68.08,0.008
		c-4.618-0.058-5.26,1.51-5.257,5.551c0.001,4.229,0.626,6.125,5.584,5.936C171.748,317.494,182.99,317.786,194.221,317.786z
		 M193.746,340.254c11.932,0,23.874-0.282,35.792,0.131c5.254,0.181,4.112-2.947,4.177-5.783c0.065-2.962,0.842-5.767-4.255-5.702
		c-23.393,0.292-46.792,0.298-70.185-0.001c-5.239-0.067-4.11,2.948-4.174,5.784c-0.066,2.96-0.856,5.884,4.258,5.7
		C170.808,339.972,182.282,340.254,193.746,340.254z M194.408,351.496c-11.465,0-22.94,0.297-34.387-0.139
		c-4.959-0.188-5.028,2.048-5.028,5.753c0,3.704,0.084,5.817,5.024,5.75c22.923-0.311,45.856-0.311,68.78,0
		c4.939,0.067,5.023-2.046,5.023-5.75c0-3.705-0.068-5.94-5.026-5.753C217.347,351.793,205.871,351.496,194.408,351.496z
		 M233.01,265.97c-2.278,2.51-3.984,4.39-5.872,6.469C233.167,273.935,235.019,272.013,233.01,265.97z"/>
	<path fill-rule="evenodd" clip-rule="evenodd" fill="#FFFFFF" d="M20.28,180.381c0-48.201-0.005-96.4,0.004-144.601
		c0.002-9.183,0.881-10.069,10.004-10.071c79.553-0.007,159.105-0.008,238.659,0.002c8.729,0.001,9.705,0.97,9.709,9.648
		c0.017,36.734-0.008,73.471,0.026,110.204c0.005,4.411,0.051,9.224-5.853,9.113c-5.375-0.1-5.447-4.623-5.43-8.824
		c0.071-15.909,0.028-31.821,0.028-47.731c0-18.719-0.102-37.438,0.084-56.154c0.038-3.813-0.78-5.129-4.904-5.122
		c-75.342,0.13-150.684,0.146-226.023-0.027c-4.697-0.011-5.152,1.647-5.147,5.601c0.099,91.719,0.125,183.439-0.051,275.158
		c-0.009,5.137,1.542,6.154,6.255,5.942c8.639-0.39,17.309-0.048,25.965-0.134c5.004-0.05,7.277,2.31,7.242,7.252
		c-0.06,8.423,0.282,16.861-0.125,25.265c-0.251,5.201,0.851,7.164,6.651,6.985c15.429-0.473,30.882-0.115,46.323-0.19
		c4.238-0.021,8.644,0.162,8.712,5.553c0.068,5.374-4.25,5.758-8.543,5.741c-18.485-0.069-36.971-0.145-55.453,0.06
		c-4.147,0.045-6.975-1.448-9.766-4.289c-11.146-11.352-22.356-22.646-33.787-33.709c-3.507-3.394-4.681-6.999-4.666-11.774
		C20.334,276.312,20.28,228.347,20.28,180.381z M40.332,335.88c3.202,3.098,6.264,5.965,9.218,8.941
		c3.008,3.029,5.91,6.163,9.492,9.916c1.925-20.981,1.509-21.413-17.69-19.954C41.199,334.795,41.067,335.075,40.332,335.88z"/>
	<path fill-rule="evenodd" clip-rule="evenodd" fill="#FFFFFF" d="M176.852,70.642c-21.048,0-42.095-0.023-63.142,0.021
		c-4.136,0.008-8.746,0.099-8.961-5.287c-0.234-5.899,4.505-5.994,8.961-5.991c42.562,0.039,85.124,0.039,127.687,0
		c4.454-0.004,9.208,0.063,8.96,5.974c-0.225,5.332-4.795,5.319-8.96,5.309C219.882,70.612,198.366,70.642,176.852,70.642z"/>
	<path fill-rule="evenodd" clip-rule="evenodd" fill="#FFFFFF" d="M178.292,81.876c21.047,0,42.094,0.03,63.14-0.026
		c4.168-0.011,8.738-0.043,8.925,5.324c0.206,5.889-4.551,5.962-8.998,5.958c-42.562-0.037-85.124-0.034-127.686-0.003
		c-4.145,0.004-8.742,0.068-8.925-5.323c-0.199-5.899,4.555-5.963,8.999-5.953C135.262,81.903,156.776,81.876,178.292,81.876z"/>
	<path fill-rule="evenodd" clip-rule="evenodd" fill="#FFFFFF" d="M177.57,154.896c-21.28,0-42.563-0.021-63.843,0.018
		c-4.422,0.009-9.221-0.012-8.979-5.956c0.219-5.348,4.777-5.324,8.944-5.32c42.562,0.04,85.124,0.04,127.687,0.001
		c4.449-0.004,9.21,0.046,8.976,5.958c-0.21,5.335-4.771,5.337-8.941,5.326C220.132,154.867,198.852,154.896,177.57,154.896z"/>
	<path fill-rule="evenodd" clip-rule="evenodd" fill="#FFFFFF" d="M176.834,132.428c-21.048,0-42.095-0.022-63.143,0.021
		c-4.139,0.008-8.744,0.083-8.942-5.304c-0.219-5.902,4.529-5.976,8.979-5.974c42.563,0.039,85.124,0.039,127.686-0.002
		c4.161-0.003,8.74-0.061,8.943,5.303c0.224,5.891-4.524,5.99-8.979,5.979C219.863,132.4,198.349,132.428,176.834,132.428z"/>
	<path fill-rule="evenodd" clip-rule="evenodd" fill="#FFFFFF" d="M71.323,300.937c4.895,0,9.792,0.078,14.686-0.021
		c4.941-0.1,7.327,2.178,7.308,7.138c-0.042,10.258-0.031,20.515-0.004,30.772c0.013,4.089-1.631,7.078-5.976,6.878
		c-3.9-0.178-5.338-3.072-5.296-6.858c0.083-7.226-0.184-14.46,0.105-21.676c0.154-3.842-0.811-5.298-4.912-5.087
		c-6.742,0.347-13.518,0.027-20.276,0.118c-4.29,0.058-8.516-0.424-8.405-5.825c0.102-4.834,3.975-5.576,8.083-5.47
		C61.527,301.033,66.427,300.936,71.323,300.937z"/>
	<path fill-rule="evenodd" clip-rule="evenodd" fill="#FFFFFF" d="M130.094,182.985c6.074-0.002,12.147,0.037,18.221-0.016
		c3.85-0.032,6.56,1.64,6.609,5.554c0.049,3.925-2.642,5.69-6.48,5.69c-12.38-0.002-24.76-0.007-37.141,0.005
		c-3.79,0.003-6.589-1.571-6.615-5.55c-0.025-3.93,2.644-5.689,6.484-5.686C117.479,182.99,123.787,182.986,130.094,182.985z"/>
	<path fill-rule="evenodd" clip-rule="evenodd" fill="#FFFFFF" d="M118.893,205.494c2.804-0.004,5.619-0.173,8.406,0.04
		c3.249,0.248,5.169,2.315,5.206,5.489c0.037,3.209-1.959,5.399-5.144,5.538c-5.827,0.255-11.681,0.246-17.511,0.009
		c-3.176-0.129-5.215-2.217-5.214-5.465c0-3.215,1.957-5.269,5.151-5.549C112.802,205.29,115.856,205.498,118.893,205.494z"/>
	<path fill-rule="evenodd" clip-rule="evenodd" fill="#FFFFFF" d="M118.773,317.789c-2.804-0.003-5.615,0.126-8.409-0.036
		c-3.511-0.201-5.843-2.119-5.708-5.724c0.132-3.525,2.446-5.42,6.007-5.458c5.374-0.061,10.75-0.107,16.121,0.021
		c3.58,0.085,5.802,2.184,5.703,5.717c-0.101,3.524-2.451,5.383-6.005,5.47C123.915,317.842,121.344,317.791,118.773,317.789z"/>
	<path fill-rule="evenodd" clip-rule="evenodd" fill="#FFFFFF" d="M119.075,329.027c2.57,0,5.145-0.098,7.709,0.022
		c3.581,0.169,5.755,2.189,5.711,5.73c-0.038,3.177-2.099,5.283-5.313,5.388c-5.831,0.19-11.688,0.245-17.511-0.055
		c-3.146-0.162-5.167-2.346-5.034-5.614c0.129-3.188,2.109-5.179,5.331-5.398c3.023-0.205,6.07-0.044,9.107-0.044
		C119.075,329.046,119.075,329.036,119.075,329.027z"/>
	<path fill-rule="evenodd" clip-rule="evenodd" fill="#FFFFFF" d="M119.06,244.771c2.57,0,5.145-0.093,7.71,0.022
		c3.582,0.162,5.757,2.177,5.726,5.716c-0.027,3.18-2.087,5.292-5.3,5.4c-5.833,0.196-11.688,0.245-17.513-0.048
		c-3.146-0.159-5.169-2.336-5.046-5.603c0.121-3.192,2.096-5.188,5.316-5.412c3.021-0.21,6.07-0.046,9.106-0.046
		C119.06,244.793,119.06,244.781,119.06,244.771z"/>
	<path fill-rule="evenodd" clip-rule="evenodd" fill="#FFFFFF" d="M118.353,278.436c-2.804,0-5.619,0.173-8.405-0.047
		c-3.191-0.251-5.24-2.162-5.311-5.4c-0.071-3.23,1.885-5.457,5.053-5.615c5.826-0.288,11.679-0.223,17.513-0.054
		c3.264,0.094,5.197,2.234,5.304,5.397c0.107,3.222-1.879,5.311-5.051,5.63c-3.007,0.302-6.066,0.064-9.103,0.064
		C118.353,278.419,118.353,278.428,118.353,278.436z"/>
	<path fill-rule="evenodd" clip-rule="evenodd" fill="#FFFFFF" d="M306.752,239.15c-15.666,0-31.334-0.179-46.994,0.086
		c-6.469,0.108-9.446-1.992-9.271-8.869c0.329-12.85,0.27-25.719,0.02-38.574c-0.12-6.189,2.064-8.92,8.535-8.885
		c31.796,0.17,63.596,0.151,95.393,0.01c5.859-0.026,8.631,2.008,8.542,8.139c-0.194,13.324-0.196,26.655,0,39.979
		c0.089,6.119-2.669,8.246-8.528,8.178C338.552,239.028,322.65,239.15,306.752,239.15z M306.414,227.919
		c13.57,0,27.143-0.134,40.71,0.086c3.701,0.061,4.758-1.009,4.644-4.674c-0.265-8.414-0.218-16.847-0.015-25.265
		c0.076-3.117-0.921-3.924-3.96-3.912c-27.374,0.107-54.749,0.11-82.124-0.004c-3.097-0.012-3.993,0.885-3.924,3.949
		c0.193,8.418,0.26,16.85-0.021,25.265c-0.123,3.728,1.04,4.694,4.682,4.637C279.738,227.791,293.078,227.919,306.414,227.919z"/>
	<path fill-rule="evenodd" clip-rule="evenodd" fill="#FFFFFF" d="M312.381,211.024c0,1.401-0.02,2.804,0.004,4.205
		c0.067,4.094-1.598,7.095-5.959,6.917c-3.919-0.161-5.432-3.048-5.324-6.846c0.076-2.801,0.044-5.606,0.008-8.407
		c-0.054-4.096,1.593-7.081,5.961-6.918c3.966,0.149,5.424,3.08,5.317,6.845C312.348,208.22,312.381,209.623,312.381,211.024z"/>
	<path fill-rule="evenodd" clip-rule="evenodd" fill="#FFFFFF" d="M295.531,211.469c-0.309,4.131,1.516,10.713-5.898,10.549
		c-6.805-0.151-5.154-6.407-5.363-10.867c-0.044-0.933,0.03-1.869-0.014-2.802c-0.205-4.351,0.541-8.484,5.906-8.346
		c4.907,0.128,5.583,4.094,5.376,8.162C295.491,209.096,295.531,210.033,295.531,211.469z"/>
	<path fill-rule="evenodd" clip-rule="evenodd" fill="#FFFFFF" d="M278.674,211.027c-0.005,1.636,0.03,3.272-0.014,4.905
		c-0.105,3.855-2.012,6.404-5.941,6.226c-3.5-0.157-5.29-2.588-5.294-6.161c-0.006-3.037,0.02-6.074-0.018-9.109
		c-0.051-4.095,1.594-7.078,5.965-6.912c3.973,0.15,5.42,3.087,5.313,6.848C278.646,208.225,278.68,209.625,278.674,211.027z"/>
	<g>
		<path fill="#FFFFFF" d="M86.754,99.261H54.875c-3.89,0-7.055-3.164-7.055-7.053v-31.88c0-3.89,3.165-7.054,7.055-7.054h31.879
			c3.89,0,7.055,3.164,7.055,7.054v31.88C93.809,96.097,90.644,99.261,86.754,99.261z M58.82,88.261h23.988V64.274H58.82V88.261z"/>
	</g>
	<g>
		<g>
			<path fill="#FFFFFF" d="M279.121,278.064h-23.43c-2.858,0-5.186-2.326-5.186-5.184V249.45c0-2.858,2.327-5.185,5.186-5.185h23.43
				c2.858,0,5.186,2.326,5.186,5.185v23.431C284.307,275.738,281.979,278.064,279.121,278.064z M258.591,269.98h17.631V252.35
				h-17.631V269.98z"/>
		</g>
		<g>
			<path fill="#FFFFFF" d="M318.462,278.064h-23.43c-2.859,0-5.186-2.326-5.186-5.184V249.45c0-2.858,2.326-5.185,5.186-5.185h23.43
				c2.857,0,5.186,2.326,5.186,5.185v23.431C323.647,275.738,321.319,278.064,318.462,278.064z M297.931,269.98h17.631V252.35
				h-17.631V269.98z"/>
		</g>
		<g>
			<path fill="#FFFFFF" d="M357.802,277.833h-23.43c-2.858,0-5.186-2.326-5.186-5.184v-23.431c0-2.858,2.327-5.185,5.186-5.185
				h23.43c2.858,0,5.186,2.326,5.186,5.185v23.431C362.987,275.507,360.66,277.833,357.802,277.833z M337.271,269.749h17.631
				v-17.631h-17.631V269.749z"/>
		</g>
	</g>
	<g>
		<g>
			<path fill="#FFFFFF" d="M279.121,316.795h-23.43c-2.858,0-5.186-2.326-5.186-5.184v-23.431c0-2.858,2.327-5.185,5.186-5.185
				h23.43c2.858,0,5.186,2.326,5.186,5.185v23.431C284.307,314.469,281.979,316.795,279.121,316.795z M258.591,308.711h17.631
				V291.08h-17.631V308.711z"/>
		</g>
		<g>
			<path fill="#FFFFFF" d="M318.462,316.795h-23.43c-2.859,0-5.186-2.326-5.186-5.184v-23.431c0-2.858,2.326-5.185,5.186-5.185
				h23.43c2.857,0,5.186,2.326,5.186,5.185v23.431C323.647,314.469,321.319,316.795,318.462,316.795z M297.931,308.711h17.631
				V291.08h-17.631V308.711z"/>
		</g>
		<g>
			<path fill="#FFFFFF" d="M357.802,316.563h-23.43c-2.858,0-5.186-2.326-5.186-5.184v-23.431c0-2.858,2.327-5.185,5.186-5.185
				h23.43c2.858,0,5.186,2.326,5.186,5.185v23.431C362.987,314.237,360.66,316.563,357.802,316.563z M337.271,308.479h17.631
				v-17.631h-17.631V308.479z"/>
		</g>
	</g>
	<g>
		<g>
			<path fill="#FFFFFF" d="M279.121,355.525h-23.43c-2.858,0-5.186-2.326-5.186-5.184v-23.431c0-2.858,2.327-5.185,5.186-5.185
				h23.43c2.858,0,5.186,2.326,5.186,5.185v23.431C284.307,353.199,281.979,355.525,279.121,355.525z M258.591,347.441h17.631
				v-17.631h-17.631V347.441z"/>
		</g>
		<g>
			<path fill="#FFFFFF" d="M318.462,355.525h-23.43c-2.859,0-5.186-2.326-5.186-5.184v-23.431c0-2.858,2.326-5.185,5.186-5.185
				h23.43c2.857,0,5.186,2.326,5.186,5.185v23.431C323.647,353.199,321.319,355.525,318.462,355.525z M297.931,347.441h17.631
				v-17.631h-17.631V347.441z"/>
		</g>
		<g>
			<path fill="#FFFFFF" d="M357.802,355.294h-23.43c-2.858,0-5.186-2.326-5.186-5.184V326.68c0-2.858,2.327-5.185,5.186-5.185h23.43
				c2.858,0,5.186,2.326,5.186,5.185v23.431C362.987,352.968,360.66,355.294,357.802,355.294z M337.271,347.21h17.631v-17.631
				h-17.631V347.21z"/>
		</g>
	</g>
	<g>
		<path fill="#FFFFFF" d="M86.754,160.854H54.875c-3.89,0-7.055-3.164-7.055-7.053v-31.88c0-3.89,3.165-7.054,7.055-7.054h31.879
			c3.89,0,7.055,3.164,7.055,7.054v31.88C93.809,157.69,90.644,160.854,86.754,160.854z M58.82,149.854h23.988v-23.986H58.82
			V149.854z"/>
	</g>
	<g>
		<path fill="#FFFFFF" d="M86.754,222.448H54.875c-3.89,0-7.055-3.164-7.055-7.053v-31.88c0-3.89,3.165-7.054,7.055-7.054h31.879
			c3.89,0,7.055,3.164,7.055,7.054v31.88C93.809,219.284,90.644,222.448,86.754,222.448z M58.82,211.448h23.988v-23.986H58.82
			V211.448z"/>
	</g>
	<g>
		<path fill="#FFFFFF" d="M86.754,284.042H54.875c-3.89,0-7.055-3.164-7.055-7.053v-31.88c0-3.89,3.165-7.054,7.055-7.054h31.879
			c3.89,0,7.055,3.164,7.055,7.054v31.88C93.809,280.878,90.644,284.042,86.754,284.042z M58.82,273.042h23.988v-23.986H58.82
			V273.042z"/>
	</g>
	<path fill="#FFFFFF" d="M203.385,229.407h7.778v-5.546h-7.879c-0.389-2.008-1.188-3.759-2.388-5.233h10.196v-5.547h-31.787v6.611
		h6.035c5.036,0,8.23,1.401,9.521,4.169h-15.557v5.546h15.987c-0.961,3.936-4.847,6.086-11.087,6.086h-4.9v5.793l0.271,0.288
		c6.587,7.007,11.747,13.15,17.334,19.883l0.3,0.361h9.384l-1.33-1.632c-5.298-6.496-10.883-13.223-16.107-18.803
		C197.131,240.504,202.336,236.147,203.385,229.407z"/>
</g>
</svg>
