<?xml version="1.0" encoding="utf-8"?>
<!-- Generator: Adobe Illustrator 16.0.0, SVG Export Plug-In . SVG Version: 6.00 Build 0)  -->
<!DOCTYPE svg PUBLIC "-//W3C//DTD SVG 1.1//EN" "http://www.w3.org/Graphics/SVG/1.1/DTD/svg11.dtd">
<svg version="1.1" id="Layer_1" xmlns="http://www.w3.org/2000/svg" xmlns:xlink="http://www.w3.org/1999/xlink" x="0px" y="0px"
	 width="400px" height="400px" viewBox="0 0 400 400" enable-background="new 0 0 400 400" xml:space="preserve">
<g>
	<path fill-rule="evenodd" clip-rule="evenodd" fill="#FFFFFF" d="M239.562,319.402c1.184,19.429,4.748,37.844,10.023,56.123
		c7.219,0,14.209-0.019,21.199,0.006c3.979,0.014,6.029,1.608,5.986,4.555c-0.041,2.917-2.078,4.433-6.113,4.434
		c-47.123,0.009-94.246,0.009-141.369,0c-4.025-0.001-6.068-1.529-6.102-4.445c-0.035-2.941,2.018-4.529,5.998-4.543
		c6.99-0.023,13.982-0.006,21.189-0.006c5.258-18.288,8.846-36.7,10.016-56.123c-1.775,0-3.23,0-4.688,0
		c-30.873,0-61.746,0.012-92.619-0.004c-19.623-0.01-31.715-12.157-31.717-31.87c-0.012-64.122-0.008-128.244-0.004-192.367
		c0.002-18.617,9.484-29.689,28.355-32.603c0-1.227,0-2.541,0-3.855c0-12.249-0.012-24.499,0.004-36.748
		c0.008-5.099,1.355-6.476,6.391-6.477c89.246-0.006,178.492-0.006,267.738,0c5.025,0.001,6.383,1.387,6.389,6.481
		c0.018,12.124,0.006,24.249,0.006,36.374c0,1.359,0,2.719,0,4.123c2.43,0.492,4.641,0.804,6.773,1.394
		c12.85,3.551,21.344,14.789,21.553,28.692c0.137,8.997,0.029,17.999,0.029,26.998c0.002,56.248,0.016,112.495-0.01,168.743
		c-0.006,15.815-9.256,27.685-23.887,30.592c-2.664,0.529-5.467,0.503-8.207,0.506c-30.625,0.032-61.248,0.021-91.873,0.021
		C243.146,319.402,241.667,319.402,239.562,319.402z M330.972,244.365c0-73.378,0-146.538,0-219.706c-87.477,0-174.68,0-261.986,0
		c0,73.35,0,146.516,0,219.706C156.456,244.365,243.661,244.365,330.972,244.365z M340.245,71.901c0,1.754,0,3.24,0,4.728
		c0,56.505,0.002,113.011,0,169.516c0,6.478-0.932,7.437-7.324,7.437c-88.635,0.004-177.268,0.004-265.902,0
		c-6.402,0-7.301-0.932-7.301-7.454c-0.002-56.63,0-113.261,0-169.891c0-1.435,0-2.869,0-4.341
		c-12.082,1.096-19.344,9.526-19.348,22.051c-0.018,57.256-0.008,114.511-0.008,171.767c0,1.307,0,2.613,0,3.897
		c106.711,0,212.789,0,319.238,0c0-1.578,0-2.928,0-4.277c0-56.881,0-113.762-0.002-170.643c0-1.124,0.023-2.253-0.057-3.373
		C358.774,80.576,351.296,72.877,340.245,71.901z M359.858,279.084c-106.957,0-213.018,0-319.029,0
		c0,5.059-0.307,9.911,0.086,14.706c0.381,4.649,2.932,8.42,6.402,11.521c4.451,3.979,9.732,5.135,15.588,5.132
		c91.367-0.06,182.732-0.042,274.1-0.045c1.248,0,2.5-0.002,3.748-0.072c8.57-0.491,16.553-6.933,18.076-15.389
		C359.747,289.854,359.542,284.569,359.858,279.084z M229.468,319.686c-19.504,0-39.658,0-58.98,0
		c-3.273,18.802-6.475,37.188-9.691,55.66c25.932,0,52.371,0,78.363,0C235.958,356.954,232.757,338.577,229.468,319.686z"/>
	<path fill-rule="evenodd" clip-rule="evenodd" fill="#FFFFFF" d="M118.368,166.34c0-3.261,0.004-5.882-0.002-8.504
		c-0.029-16.999-1.25-14.886,15.148-14.976c6.25-0.033,12.5-0.009,18.748-0.004c6.613,0.005,7.41,0.779,7.416,7.252
		c0.008,9.249,0.002,18.499,0.002,27.748c0,1.357,0,2.715,0,4.485c1.602,0.082,2.92,0.205,4.238,0.209
		c7.498,0.02,14.998-0.028,22.498,0.028c4.096,0.032,5.531,1.349,5.555,5.335c0.072,11.873,0.074,23.747-0.002,35.621
		c-0.025,4.254-1.625,5.519-6.625,5.522c-25.498,0.019-50.996,0.009-76.494,0.009c-5.5,0-11,0.042-16.498-0.016
		c-4.773-0.049-6.275-1.563-6.283-6.336c-0.023-16.749-0.029-33.498,0.004-50.246c0.008-4.538,1.563-6.09,6.098-6.114
		C100.763,166.306,109.354,166.34,118.368,166.34z M150.435,219.854c0-22.819,0-45.225,0-67.697c-7.754,0-15.271,0-22.828,0
		c0,22.697,0,45.093,0,67.697C135.276,219.854,142.702,219.854,150.435,219.854z M118.208,175.682c-7.955,0-15.467,0-22.922,0
		c0,14.882,0,29.419,0,44.11c7.75,0,15.271,0,22.922,0C118.208,204.966,118.208,190.41,118.208,175.682z M159.897,219.827
		c7.844,0,15.266,0,22.797,0c0-9.494,0-18.747,0-28.041c-7.734,0-15.158,0-22.797,0C159.897,201.17,159.897,210.332,159.897,219.827
		z"/>
	<path fill-rule="evenodd" clip-rule="evenodd" fill="#FFFFFF" d="M213.224,90.632c-0.113-27.836,22.303-50.42,50.096-50.471
		c27.826-0.05,50.475,22.384,50.576,50.095c0.102,27.697-22.494,50.435-50.195,50.509
		C235.864,140.839,213.339,118.466,213.224,90.632z M259.071,49.633c-17.154,1.454-31.957,14.605-35.773,31.253
		c-4.143,18.07,3.754,36.107,19.799,45.482c13.111,7.661,31.41,6.718,40.439-0.454c-4.887-6.774-9.281-13.99-14.783-20.229
		c-7.832-8.88-11.02-18.605-9.844-30.412C259.745,66.886,259.071,58.348,259.071,49.633z M268.388,49.7c0,12.022,0,24.036,0,36.058
		c12.141,0,23.963,0,35.783,0C304.278,68.661,286.419,50.719,268.388,49.7z M272.452,95.151
		c6.424,8.903,12.494,17.316,18.582,25.753c7.561-6.259,13.148-17.303,13.145-25.753C293.856,95.151,283.532,95.151,272.452,95.151z
		"/>
	<path fill-rule="evenodd" clip-rule="evenodd" fill="#FFFFFF" d="M152.341,64.364c-7.494,0-14.988,0.033-22.482-0.015
		c-3.689-0.024-5.789-1.703-5.594-4.522c0.244-3.508,2.633-4.469,5.74-4.466c14.988,0.014,29.977-0.017,44.965,0.023
		c3.695,0.01,5.717,1.696,5.563,4.584c-0.191,3.585-2.605,4.424-5.709,4.408C167.329,64.338,159.835,64.364,152.341,64.364z"/>
	<path fill-rule="evenodd" clip-rule="evenodd" fill="#FFFFFF" d="M152.735,86.168c-7.617,0-15.234,0.032-22.852-0.014
		c-3.705-0.021-5.801-1.674-5.619-4.481c0.229-3.521,2.652-4.496,5.729-4.497c14.982-0.006,29.969-0.032,44.951,0.02
		c3.719,0.012,5.736,1.714,5.592,4.58c-0.18,3.59-2.592,4.425-5.699,4.407C167.47,86.141,160.103,86.168,152.735,86.168z"/>
	<path fill-rule="evenodd" clip-rule="evenodd" fill="#FFFFFF" d="M276.876,179.088c-7.496,0-14.992,0.029-22.486-0.012
		c-3.797-0.021-5.682-1.551-5.689-4.436c-0.01-2.891,1.912-4.525,5.643-4.534c14.99-0.037,29.98-0.035,44.973-0.001
		c3.736,0.008,5.678,1.623,5.697,4.489c0.02,2.873-1.9,4.46-5.652,4.481C291.866,179.118,284.37,179.088,276.876,179.088z"/>
	<path fill-rule="evenodd" clip-rule="evenodd" fill="#FFFFFF" d="M276.702,200.883c-7.494,0.001-14.986-0.031-22.48,0.017
		c-2.998,0.019-5.219-0.9-5.502-4.224c-0.244-2.87,1.807-4.746,5.424-4.761c15.113-0.061,30.227-0.058,45.338-0.003
		c3.619,0.014,5.723,1.858,5.512,4.686c-0.246,3.3-2.406,4.319-5.436,4.301C291.94,200.853,284.321,200.883,276.702,200.883z"/>
	<path fill-rule="evenodd" clip-rule="evenodd" fill="#FFFFFF" d="M152.36,108.061c-7.365,0-14.73,0.037-22.096-0.015
		c-4.014-0.028-6.07-1.65-6.031-4.539c0.037-2.899,2.061-4.424,6.141-4.432c14.732-0.027,29.463-0.028,44.195,0.002
		c4.035,0.009,6.025,1.588,5.994,4.538c-0.031,2.931-1.979,4.407-6.105,4.433C167.093,108.094,159.728,108.062,152.36,108.061z"/>
	<path fill-rule="evenodd" clip-rule="evenodd" fill="#FFFFFF" d="M276.854,213.753c7.367,0,14.734-0.031,22.1,0.013
		c4.021,0.022,6.063,1.605,6.064,4.52c0,2.929-1.98,4.447-6.072,4.455c-14.732,0.027-29.467,0.027-44.199-0.001
		c-4.131-0.007-6.059-1.493-6.051-4.46c0.006-2.937,2.012-4.49,6.059-4.514C262.122,213.722,269.489,213.753,276.854,213.753z"/>
	<path fill-rule="evenodd" clip-rule="evenodd" fill="#FFFFFF" d="M229.718,179.063c-5.646,0.024-7.908-1.31-7.799-4.575
		c0.104-3.079,2.41-4.399,7.701-4.396c1.365,0,2.75-0.1,4.098,0.067c2.551,0.316,4.201,1.858,4.191,4.42
		c-0.012,2.721-1.633,4.344-4.463,4.475C232.206,179.111,230.96,179.063,229.718,179.063z"/>
	<path fill-rule="evenodd" clip-rule="evenodd" fill="#FFFFFF" d="M105.321,86.171c-0.496,0-0.994,0.004-1.49-0.001
		c-4.27-0.044-6.398-1.579-6.311-4.55c0.082-2.816,2.232-4.382,6.166-4.442c1.738-0.026,3.488-0.1,5.213,0.054
		c2.863,0.256,4.771,1.835,4.586,4.795c-0.172,2.721-2.01,4.141-4.809,4.13c-1.119-0.003-2.236,0-3.355,0
		C105.321,86.161,105.321,86.166,105.321,86.171z"/>
	<path fill-rule="evenodd" clip-rule="evenodd" fill="#FFFFFF" d="M229.97,200.856c-1.242,0-2.488,0.053-3.727-0.011
		c-2.688-0.139-4.502-1.869-4.143-4.243c0.25-1.656,2.055-3.887,3.615-4.35c2.514-0.746,5.416-0.447,8.121-0.218
		c2.539,0.216,4.17,1.935,4.082,4.497c-0.094,2.704-1.738,4.296-4.594,4.334c-1.117,0.015-2.236,0.002-3.355,0.002
		C229.97,200.864,229.97,200.86,229.97,200.856z"/>
	<path fill-rule="evenodd" clip-rule="evenodd" fill="#FFFFFF" d="M229.751,222.75c-0.621,0-1.242,0.012-1.863-0.002
		c-3.896-0.087-6.197-1.749-5.934-4.56c0.318-3.41,2.674-4.479,5.775-4.438c1.861,0.024,3.73-0.063,5.586,0.056
		c2.721,0.173,4.58,1.645,4.594,4.406c0.014,2.942-1.844,4.46-4.805,4.517c-1.117,0.021-2.236,0.003-3.354,0.003
		C229.751,222.738,229.751,222.744,229.751,222.75z"/>
	<path fill-rule="evenodd" clip-rule="evenodd" fill="#FFFFFF" d="M105.323,64.361c-0.623,0.003-1.244,0.014-1.865,0.002
		c-3.928-0.073-6.162-1.7-5.902-4.568c0.309-3.411,2.633-4.501,5.76-4.434c1.613,0.034,3.23,0.007,4.846,0.008
		c3.029,0.002,5.268,1.318,5.318,4.466c0.053,3.154-2.078,4.573-5.174,4.526C107.312,64.347,106.317,64.358,105.323,64.361z"/>
	<path fill-rule="evenodd" clip-rule="evenodd" fill="#FFFFFF" d="M105.177,107.977c-5.426,0.077-7.584-1.156-7.67-4.294
		c-0.088-3.248,2.227-4.623,7.813-4.616c1.365,0.002,2.744-0.06,4.092,0.103c2.59,0.311,4.146,1.928,4.1,4.467
		c-0.049,2.525-1.619,4.112-4.24,4.321C107.913,108.064,106.542,107.977,105.177,107.977z"/>
	<path fill-rule="evenodd" clip-rule="evenodd" fill="#FFFFFF" d="M199.888,298.985c-8.998,0-17.996,0.018-26.994-0.007
		c-4.008-0.011-6.107-1.599-5.926-4.581c0.217-3.552,2.607-4.429,5.727-4.424c18.246,0.027,36.494-0.003,54.74,0.027
		c3.701,0.007,5.74,1.685,5.553,4.568c-0.23,3.535-2.604,4.444-5.73,4.431C218.136,298.96,209.011,298.985,199.888,298.985z"/>
</g>
</svg>
