<?xml version="1.0" encoding="utf-8"?>
<!-- Generator: Adobe Illustrator 16.0.0, SVG Export Plug-In . SVG Version: 6.00 Build 0)  -->
<!DOCTYPE svg PUBLIC "-//W3C//DTD SVG 1.1//EN" "http://www.w3.org/Graphics/SVG/1.1/DTD/svg11.dtd">
<svg version="1.1" id="Layer_1" xmlns="http://www.w3.org/2000/svg" xmlns:xlink="http://www.w3.org/1999/xlink" x="0px" y="0px"
	 width="400px" height="400px" viewBox="0 0 400 400" enable-background="new 0 0 400 400" xml:space="preserve">
<g>
	<path fill-rule="evenodd" clip-rule="evenodd" fill="#FFFFFF" d="M211.336,332.689c-2.919,10.337-9.134,17.41-18.872,21.476
		c3.152,9.011,1.605,16.794-6.168,22.436c-6.108,4.435-12.937,4.702-19.389,0.76c-7.904-4.829-10.176-12.213-8.108-21.236
		c-16.503,0-32.842,0-49.466,0c1.971,9.651-0.6,17.479-9.641,22.012c-6.613,3.315-13.27,2.441-18.953-2.292
		c-6.845-5.699-8.221-13.059-5.258-21.228c-0.2-0.32-0.281-0.632-0.465-0.715c-13.182-5.999-19.07-16.325-19.033-30.699
		c0.131-50.242,0.047-100.485,0.053-150.729c0.002-20.058,12.433-32.481,32.49-32.491c6.986-0.004,13.974-0.001,21.501-0.001
		c0-1.624,0-3.065,0-4.507c0.002-30.496-0.093-60.991,0.06-91.486c0.051-10.18,4.992-17.729,14.314-21.865
		c9.191-4.078,17.898-2.555,25.5,3.968c5.74,4.927,8.147,11.446,8.137,18.989c-0.042,29.995-0.017,59.991-0.017,89.986
		c0,1.479,0,2.959,0,4.915c7.692,0,15.152-0.224,22.589,0.089c4.059,0.172,8.283,0.682,12.08,2.033
		c11.654,4.151,19.203,15.149,19.286,27.719c0.118,18.122,0.035,36.245,0.038,54.367c0,1.192,0,2.385,0.613,3.74
		c0.558-1.031,1.157-2.043,1.666-3.098c9.747-20.237,19.477-40.483,29.227-60.72c5.661-11.751,15.117-15.053,26.914-9.391
		c34.648,16.632,69.293,33.274,103.935,49.922c5.996,2.881,6.874,5.33,4.016,11.273c-24.498,50.947-49.003,101.891-73.516,152.831
		c-2.646,5.498-5.203,6.373-10.789,3.689c-26.21-12.59-52.41-25.198-78.615-37.799C214.23,334.045,212.987,333.469,211.336,332.689z
		 M110.022,151.98c-7.75,0-15.092-0.014-22.435,0.002c-12.181,0.028-19.542,7.416-19.551,19.655
		c-0.016,22.488-0.005,44.976-0.005,67.463c0,28.735-0.027,57.47,0.017,86.204c0.017,10.294,7.331,18.503,17.179,18.559
		c32.48,0.183,64.965,0.132,97.446,0.028c7.45-0.023,13.972-5.246,16.427-12.173c1.079-3.047,0.931-5.131-2.578-6.314
		c-2.464-0.833-4.763-2.168-7.116-3.317c-11.24-5.482-14.577-15.105-9.149-26.434c6.143-12.825,12.331-25.628,18.432-38.474
		c0.673-1.417,1.268-3.049,1.271-4.581c0.073-27.61,0.126-55.221,0.005-82.829c-0.044-10.025-7.913-17.625-18.007-17.766
		c-7.12-0.1-14.242-0.033-21.363-0.008c-0.819,0.003-1.639,0.21-2.701,0.355c0,9.907,0,19.607,0,29.376c-4.067,0-7.854,0-12.047,0
		c0-10.035,0-19.825,0-29.542c-8.109,0-15.808,0-23.91,0c0,9.99,0,19.779,0,29.494c-4.206,0-7.995,0-11.914,0
		C110.022,171.776,110.022,162.168,110.022,151.98z M247.585,183.592c-0.078,0.135-0.413,0.634-0.671,1.171
		c-18.713,38.897-37.433,77.791-56.112,116.704c-2.298,4.785-1.211,7.398,3.857,9.841c18.881,9.099,37.767,18.187,56.656,27.269
		c14.716,7.077,29.438,14.139,44.462,21.354c19.962-41.497,39.833-82.809,59.802-124.321
		C319.482,218.223,283.77,201.021,247.585,183.592z M145.573,139.9c0.215-0.53,0.381-0.75,0.381-0.971
		c0.022-31.856,0.098-63.713-0.023-95.57c-0.02-5.059-2.967-8.7-7.698-10.549c-8.112-3.17-16.177,2.799-16.19,12.006
		c-0.041,30.734-0.018,61.468-0.004,92.201c0,0.944,0.176,1.889,0.273,2.883C130.205,139.9,137.813,139.9,145.573,139.9z
		 M365.922,214.057c-0.992-0.541-1.522-0.861-2.078-1.129c-25.394-12.222-50.789-24.44-76.186-36.654
		c-7.979-3.837-15.886-7.842-24.007-11.352c-1.825-0.787-4.82-0.492-6.512,0.549c-1.379,0.848-2.6,3.875-2.116,5.357
		c0.666,2.042,2.681,4.198,4.672,5.171c26.668,13.02,53.432,25.844,80.175,38.711c6.92,3.329,13.851,6.636,20.929,10.025
		C362.587,221.008,364.191,217.664,365.922,214.057z M92.181,355.981c-3.213-0.095-5.987,2.494-6.129,5.719
		c-0.141,3.203,2.416,6.028,5.628,6.222c3.354,0.2,6.286-2.538,6.319-5.9C98.03,358.799,95.407,356.076,92.181,355.981z
		 M176.149,367.923c3.222-0.086,5.859-2.81,5.839-6.025c-0.022-3.36-2.949-6.113-6.3-5.924c-3.207,0.181-5.777,3.007-5.646,6.207
		C170.173,365.404,172.944,368.01,176.149,367.923z"/>
	<path fill-rule="evenodd" clip-rule="evenodd" fill="#FFFFFF" d="M310.615,54.52c8.939,5.939,17.52,11.703,26.207,17.297
		c0.704,0.453,2.353,0.071,3.222-0.47c3.92-2.44,7.698-5.106,11.564-7.636c3.844-2.514,6.147-2.352,9.342,0.751
		c3.584,3.482,7.125,7.013,10.6,10.604c3.317,3.43,3.365,6.421,0.039,9.792c-7.546,7.65-15.089,15.306-22.811,22.777
		c-6.278,6.075-14.526,7.014-22.056,2.434c-33.063-20.107-66.069-40.308-99.068-60.52c-4.381-2.684-4.82-6.564-1.379-10.291
		c1.186-1.285,2.452-2.495,3.702-3.719c10.745-10.526,24.789-12.27,37.762-4.71c3.551,2.068,7.077,5.607,10.7,5.721
		c3.635,0.114,7.385-3.19,11.071-5.024c6.926-3.446,13.877-6.844,20.747-10.397c3.376-1.746,6.091-1.23,8.801,1.37
		c8.933,8.568,8.991,8.741,1.577,18.661C317.423,45.458,314.196,49.746,310.615,54.52z M309.736,35.625
		c-0.188-0.167-0.373-0.333-0.56-0.5c-8.693,4.344-17.478,8.516-26.039,13.104c-3.931,2.106-7.167,1.888-10.76-0.542
		c-3.815-2.581-7.824-4.898-11.858-7.135c-6.998-3.882-14.842-2.95-20.556,2.387c1.068,0.678,2.09,1.344,3.129,1.979
		c28.625,17.5,57.251,34.998,85.879,52.493c8.088,4.941,8.188,4.924,14.87-1.758c0.617-0.617,1.234-1.238,1.854-1.854
		c4.573-4.539,9.146-9.077,13.674-13.572c-3.898-4.637-3.9-4.641-8.229-1.771c-2.911,1.93-5.873,3.789-8.708,5.826
		c-3.054,2.193-5.865,2.043-8.952-0.045c-11.161-7.549-22.415-14.958-33.602-22.469c-4.604-3.091-5.05-6.084-1.692-10.629
		C302.018,45.955,305.885,40.795,309.736,35.625z"/>
	<path fill-rule="evenodd" clip-rule="evenodd" fill="#FFFFFF" d="M359.13,145.428c-2.984-7.214-5.726-13.846-8.617-20.836
		c3.379-1.709,6.758-3.42,10.105-5.114c9.047,13.96,19.332,51.679,18.499,68.096c-3.686,0.221-7.438,0.445-11.095,0.664
		c-1.308-8.177-2.415-15.939-3.819-23.647c-1.221-6.699-1.375-6.607-8.062-7.264c-27.689-2.717-51.629-13.73-71.896-32.734
		c-4.374-4.101-8.502-8.461-12.8-12.645c-3.608-3.512-6.631-3.582-10.545-0.385c-8.904,7.271-18.631,6.88-26.896-1.084
		c-13.019-12.544-29.91-12.846-43.288-0.662c-5.768,5.253-12.327,8.345-20.462,8.426c0-3.95,0-7.764,0-11.838
		c5.375-0.237,9.541-2.857,13.459-6.389c16.522-14.893,40.368-14.756,56.868,0.154c0.834,0.754,1.614,1.566,2.452,2.314
		c3.255,2.904,6.282,2.969,9.728,0.229c9.853-7.836,19.168-7.422,27.952,1.521c10.791,10.986,21.757,21.688,35.623,28.906
		c11.862,6.176,24.374,10.172,37.603,11.969C355.391,145.307,356.871,145.295,359.13,145.428z"/>
	<path fill-rule="evenodd" clip-rule="evenodd" fill="#FFFFFF" d="M49.317,274.475c-3.492,1.747-6.807,3.406-10.115,5.063
		C4.183,216.469,14.109,111.836,94.606,54.359c2.232,3.063,4.469,6.13,6.875,9.432c-32.868,24.541-54.787,56.323-64.529,96.01
		C27.249,199.324,31.664,237.549,49.317,274.475z"/>
	<path fill-rule="evenodd" clip-rule="evenodd" fill="#FFFFFF" d="M252.492,360.763c0.952,2.976,2.074,6.486,3.298,10.312
		c-16.237,5.335-32.52,8.146-49.552,8.719c0-4.027,0-7.714,0-10.875C221.506,366.227,236.754,363.537,252.492,360.763z"/>
	<path fill-rule="evenodd" clip-rule="evenodd" fill="#FFFFFF" d="M170.878,33.45c-0.548-3.2-1.152-6.73-1.832-10.696
		c16.51-2.951,32.774-3.551,49.531-1.736c-0.412,3.977-0.802,7.737-1.118,10.793C201.778,32.363,186.538,32.899,170.878,33.45z"/>
	<path fill-rule="evenodd" clip-rule="evenodd" fill="#FFFFFF" d="M103.763,331.791c-3.941,0-7.64,0-11.535,0
		c0-45.931,0-91.695,0-137.638c3.871,0,7.57,0,11.535,0C103.763,239.938,103.763,285.703,103.763,331.791z"/>
	<path fill-rule="evenodd" clip-rule="evenodd" fill="#FFFFFF" d="M128.282,194.149c3.966,0,7.665,0,11.551,0
		c0,45.851,0,91.525,0,137.505c-3.707,0-7.498,0-11.551,0C128.282,285.978,128.282,240.213,128.282,194.149z"/>
	<path fill-rule="evenodd" clip-rule="evenodd" fill="#FFFFFF" d="M175.754,331.792c-3.94,0-7.639,0-11.534,0
		c0-45.931,0-91.695,0-137.639c3.869,0,7.568,0,11.534,0C175.754,239.938,175.754,285.701,175.754,331.792z"/>
	<path fill-rule="evenodd" clip-rule="evenodd" fill="#FFFFFF" d="M278.26,216.341c23.227,0.055,41.784,18.746,41.77,42.069
		c-0.016,23.116-18.905,41.908-42.079,41.861c-23.02-0.046-41.931-19.103-41.854-42.178
		C236.172,234.954,255.023,216.286,278.26,216.341z M277.034,287.853c8.252,1.449,20.474-4.249,24.46-11.681
		c-3.341-1.603-6.671-3.2-9.602-4.605C286.763,277.189,281.87,282.553,277.034,287.853z M248.991,250.943
		c-2.156,10.567,0.035,19.337,6.975,27.41c0.383-4.192,0.529-7.796,1.086-11.335c0.575-3.651,1.552-7.24,2.398-11.065
		C256.024,254.313,252.692,252.717,248.991,250.943z M306.853,265.408c3.432-8.274-1.025-23.296-6.341-26.352
		c-1.101,7.052-2.219,14.225-3.377,21.65C300.108,262.146,303.339,263.709,306.853,265.408z M264.703,245.127
		c2.379-2.98,4.616-5.795,6.864-8.6c2.313-2.885,4.639-5.763,6.441-8.001c-7.351-1.169-18.764,4.097-23.345,11.763
		C258.021,241.906,261.36,243.517,264.703,245.127z M280.828,266.229c-3.797-1.813-6.856-3.275-10.629-5.078
		c-0.815,5.889-1.548,11.183-2.28,16.478c0.47,0.22,0.939,0.44,1.408,0.66C273.021,274.415,276.715,270.541,280.828,266.229z
		 M275.399,250.316c3.939,1.849,6.903,3.239,10.72,5.03c0.757-5.999,1.419-11.249,2.08-16.498c-0.476-0.193-0.952-0.387-1.429-0.58
		C283.162,242.091,279.554,245.915,275.399,250.316z"/>
	<path fill-rule="evenodd" clip-rule="evenodd" fill="#FFFFFF" d="M278.976,325.185c-1.868,3.86-3.481,7.193-5.221,10.786
		c-18.079-8.689-35.877-17.243-54.001-25.954c1.767-3.687,3.403-7.101,5.176-10.8C243.087,307.94,260.879,316.489,278.976,325.185z"
		/>
</g>
</svg>
