<?xml version="1.0" encoding="utf-8"?>
<!-- Generator: Adobe Illustrator 16.0.0, SVG Export Plug-In . SVG Version: 6.00 Build 0)  -->
<!DOCTYPE svg PUBLIC "-//W3C//DTD SVG 1.1//EN" "http://www.w3.org/Graphics/SVG/1.1/DTD/svg11.dtd">
<svg version="1.1" id="Layer_1" xmlns="http://www.w3.org/2000/svg" xmlns:xlink="http://www.w3.org/1999/xlink" x="0px" y="0px"
	 width="400px" height="400px" viewBox="0 0 400 400" enable-background="new 0 0 400 400" xml:space="preserve">
<g>
	<path fill-rule="evenodd" clip-rule="evenodd" fill="#FFFFFF" d="M64.027,158.603c-15.705,0-31.145,0-46.938,0
		c0-1.466,0-2.66,0-3.855c0.001-15.733-0.019-31.466,0.007-47.196c0.032-19.015,12.391-31.446,31.335-31.456
		c50.76-0.022,101.521-0.007,152.283-0.006c1.575,0,3.151,0,5.188,0c0-1.555,0-2.859,0-4.164c0-12.045-0.033-24.09,0.011-36.135
		c0.041-11.249,7.475-18.685,18.755-18.69c46.459-0.027,92.917-0.025,139.377-0.002c11.52,0.005,18.857,7.379,18.859,18.963
		c0.019,69.936,0.018,139.87-0.004,209.805c-0.004,11.727-7.37,19.009-19.176,19.025c-19.666,0.027-39.331,0.008-58.996,0.008
		c-1.328,0-2.655,0-4.201,0c0,19.656,0,39.027,0,58.804c23.284,0,46.678,0,70.581,0c0,3.167,0,5.94,0,8.714
		c0,6.76,0.04,13.521-0.008,20.28c-0.127,17.587-12.922,30.19-30.754,30.196c-72.27,0.024-144.539,0.012-216.809,0.012
		c-9.586,0-19.173,0.042-28.761-0.008c-17.718-0.09-30.406-12.78-30.473-30.476c-0.049-13.028-0.03-26.057-0.05-39.084
		c-0.001-0.233-0.098-0.468-0.272-1.256c-5.959,0-12.051,0.112-18.139-0.024c-12.153-0.273-22.867-8.076-26.984-19.48
		c-6.791-18.807,6.865-38.903,26.87-39.433c6.007-0.16,12.021-0.024,18.299-0.024C64.027,221.651,64.027,190.395,64.027,158.603z
		 M76.096,253.094c1.677,0,3.001,0,4.323,0c27.405,0.001,54.811-0.031,82.215,0.066c2.107,0.008,4.385,0.554,6.287,1.469
		c9.067,4.359,18.008,8.984,27.043,13.412c6.162,3.02,9.923,7.671,9.87,14.688c-0.05,6.846-3.752,11.411-9.778,14.374
		c-9.029,4.437-17.962,9.073-27.032,13.423c-2.005,0.961-4.417,1.501-6.645,1.51c-27.281,0.1-54.564,0.064-81.847,0.066
		c-1.417,0-2.834,0-4.396,0c0,14.535-0.229,28.537,0.082,42.528c0.204,9.185,8.359,16.455,17.564,16.455
		c9.377,0.001,17.3-7.407,17.641-16.8c0.23-6.383,0.066-12.779,0.075-19.17c0.004-3.645,0-7.292,0-11.316
		c59.206,0,117.992,0,176.713,0c0-19.851,0-39.306,0-58.899c-20.689,0-41.085,0.007-61.479-0.003
		c-14.134-0.007-20.836-6.686-20.835-20.694c0.005-50.633,0.004-101.265,0.005-151.896c0-1.416,0-2.832,0-4.138
		c-45.415,0-90.286,0-135.687,0c5.268,7.066,5.956,14.737,5.937,22.752c-0.115,45.962-0.056,91.924-0.056,137.886
		C76.096,250.122,76.096,251.438,76.096,253.094z M217.706,140.993c0,34.785-0.006,69.57,0.006,104.355
		c0.002,5.785,1.97,7.742,7.74,7.743c45.97,0.008,91.939,0.008,137.91,0c5.767,0,7.74-1.976,7.741-7.749
		c0.006-69.448,0.005-138.895-0.002-208.342c-0.001-6.281-1.847-8.108-8.115-8.108c-45.725-0.003-91.449-0.005-137.174-0.002
		c-6.262,0-8.107,1.848-8.107,8.117C217.7,71.67,217.703,106.332,217.706,140.993z M117.306,371.101c2.218,0,3.554,0,4.89,0
		c15.979,0,31.958,0,47.938,0c56.664,0,113.33,0.006,169.994-0.004c9.985-0.001,17.614-5.498,18.742-14.653
		c0.829-6.729,0.163-13.642,0.163-20.476c-78.63,0-157.091,0-235.589,0C122.575,347.806,125.737,360.017,117.306,371.101z
		 M64.284,146.711c0-13.803,0.076-27.389-0.023-40.976c-0.076-10.072-7.904-17.847-17.696-17.834
		c-9.773,0.013-17.56,7.823-17.647,17.888c-0.09,10.302-0.021,20.607-0.022,30.912c0,3.279,0,6.56,0,10.01
		C40.738,146.711,52.228,146.711,64.284,146.711z M158.528,265.151c-23.672,0-47.048,0-70.335,0c0,3.985,0,7.712,0,11.357
		c23.586,0,46.874,0,70.335,0C158.528,272.686,158.528,269.049,158.528,265.151z M87.97,300.074c23.711,0,47.087,0,70.461,0
		c0-3.954,0-7.678,0-11.285c-23.646,0-47.021,0-70.461,0C87.97,292.63,87.97,296.179,87.97,300.074z M52.32,265.093
		c-9.288-0.985-16.954,0.954-21.404,9.467c-3.381,6.471-2.723,12.902,1.663,18.714c5.005,6.633,11.998,7.772,19.741,6.746
		C52.32,288.287,52.32,276.781,52.32,265.093z M75.824,300.148c0-11.932,0-23.509,0-35.063c-3.911,0-7.545,0-11.32,0
		c0,11.764,0,23.341,0,35.063C68.347,300.148,71.98,300.148,75.824,300.148z M170.699,268.641c0,9.614,0,18.51,0,27.916
		c7.34-3.684,14.383-7.068,21.27-10.747c2.97-1.587,2.968-4.839,0-6.423C185.081,275.709,178.038,272.325,170.699,268.641z"/>
	<path fill-rule="evenodd" clip-rule="evenodd" fill="#FFFFFF" d="M93.967,111.24c0-3.903,0-7.54,0-11.364
		c33.295,0,66.417,0,99.839,0c0,3.649,0,7.377,0,11.364C160.679,111.24,127.47,111.24,93.967,111.24z"/>
	<path fill-rule="evenodd" clip-rule="evenodd" fill="#FFFFFF" d="M229.674,99.442c0-19.649,0-39.017,0-58.57
		c43.137,0,86.097,0,129.348,0c0,19.408,0,38.862,0,58.57C316.044,99.442,272.997,99.442,229.674,99.442z M241.474,87.634
		c35.466,0,70.645,0,105.739,0c0-11.847,0-23.434,0-34.956c-35.387,0-70.479,0-105.739,0
		C241.474,64.365,241.474,75.867,241.474,87.634z"/>
	<path fill-rule="evenodd" clip-rule="evenodd" fill="#FFFFFF" d="M264.647,146.73c-11.767,0-23.264,0-34.955,0
		c0-11.662,0-23.157,0-34.95c11.525,0,23.107,0,34.955,0C264.647,123.271,264.647,134.854,264.647,146.73z M241.563,123.463
		c0,3.996,0,7.71,0,11.341c3.982,0,7.7,0,11.347,0c0-3.921,0-7.55,0-11.341C249.09,123.463,245.462,123.463,241.563,123.463z"/>
	<path fill-rule="evenodd" clip-rule="evenodd" fill="#FFFFFF" d="M276.772,146.669c0-11.778,0-23.188,0-34.89
		c11.649,0,23.232,0,35.078,0c0,11.494,0,23.077,0,34.89C300.255,146.669,288.673,146.669,276.772,146.669z M300.13,134.948
		c0-4.036,0-7.666,0-11.449c-3.893,0-7.608,0-11.385,0c0,3.926,0,7.643,0,11.449C292.613,134.948,296.241,134.948,300.13,134.948z"
		/>
	<path fill-rule="evenodd" clip-rule="evenodd" fill="#FFFFFF" d="M324.067,146.636c0-11.767,0-23.264,0-34.954
		c11.661,0,23.157,0,34.95,0c0,11.521,0,23.105,0,34.954C347.528,146.636,335.945,146.636,324.067,146.636z M335.89,134.872
		c3.901,0,7.615,0,11.368,0c0-3.938,0-7.653,0-11.299c-3.976,0-7.692,0-11.368,0C335.89,127.487,335.89,131.117,335.89,134.872z"/>
	<path fill-rule="evenodd" clip-rule="evenodd" fill="#FFFFFF" d="M229.662,193.835c0-11.755,0-23.251,0-34.946
		c11.659,0,23.154,0,34.95,0c0,11.51,0,23.095,0,34.946C253.13,193.835,241.546,193.835,229.662,193.835z M241.568,170.651
		c0,4.03,0,7.748,0,11.343c3.992,0,7.711,0,11.334,0c0-3.933,0-7.563,0-11.343C249.073,170.651,245.444,170.651,241.568,170.651z"/>
	<path fill-rule="evenodd" clip-rule="evenodd" fill="#FFFFFF" d="M359.049,193.936c-11.756,0-23.253,0-34.947,0
		c0-11.66,0-23.155,0-34.951c11.514,0,23.097,0,34.947,0C359.049,170.47,359.049,182.053,359.049,193.936z M347.441,170.725
		c-4.04,0-7.755,0-11.473,0c0,3.951,0,7.668,0,11.276c3.985,0,7.706,0,11.473,0C347.441,178.166,347.441,174.624,347.441,170.725z"
		/>
	<path fill-rule="evenodd" clip-rule="evenodd" fill="#FFFFFF" d="M264.7,241.127c-11.666,0-23.162,0-34.931,0
		c0-11.59,0-23.174,0-34.998c11.556,0,23.139,0,34.931,0C264.7,217.697,264.7,229.193,264.7,241.127z M252.918,229.341
		c0-4.05,0-7.679,0-11.428c-3.904,0-7.619,0-11.365,0c0,3.937,0,7.652,0,11.428C245.431,229.341,249.058,229.341,252.918,229.341z"
		/>
	<path fill-rule="evenodd" clip-rule="evenodd" fill="#FFFFFF" d="M311.848,241.136c-11.76,0-23.256,0-34.949,0
		c0-11.66,0-23.156,0-34.95c11.517,0,23.101,0,34.949,0C311.848,217.675,311.848,229.259,311.848,241.136z M288.588,229.189
		c3.821,0,7.623,0,11.473,0c0-3.841,0-7.557,0-11.212c-3.968,0-7.686,0-11.473,0C288.588,221.8,288.588,225.34,288.588,229.189z"/>
	<path fill-rule="evenodd" clip-rule="evenodd" fill="#FFFFFF" d="M359.039,241.146c-11.731,0-23.228,0-34.93,0
		c0-11.647,0-23.145,0-34.949c11.487,0,23.071,0,34.93,0C359.039,217.651,359.039,229.233,359.039,241.146z M335.913,217.87
		c0,4.068,0,7.697,0,11.389c3.925,0,7.641,0,11.324,0c0-3.96,0-7.678,0-11.389C343.336,217.87,339.706,217.87,335.913,217.87z"/>
	<path fill-rule="evenodd" clip-rule="evenodd" fill="#FFFFFF" d="M311.943,158.949c0,11.766,0,23.262,0,34.953
		c-11.661,0-23.158,0-34.95,0c0-11.522,0-23.106,0-34.953C288.48,158.949,300.065,158.949,311.943,158.949z M288.798,170.625
		c0,4.119,0,7.837,0,11.47c3.926,0,7.556,0,11.277,0c0-3.917,0-7.632,0-11.47C296.217,170.625,292.589,170.625,288.798,170.625z"/>
	<path fill="#FFFFFF" d="M160.661,166.256h16.104v-11.483h-16.313c-0.805-4.157-2.461-7.782-4.943-10.835h21.111v-11.485h-65.815
		v13.689h12.496c10.427,0,17.041,2.901,19.713,8.631h-32.209v11.483h33.102c-1.989,8.148-10.034,12.601-22.955,12.601h-10.146
		v11.994l0.563,0.597c13.638,14.508,24.321,27.229,35.89,41.167l0.62,0.748h19.43l-2.753-3.378
		c-10.97-13.45-22.534-27.378-33.352-38.932C147.712,189.231,158.488,180.211,160.661,166.256z"/>
</g>
</svg>
