<?xml version="1.0" encoding="utf-8"?>
<!-- Generator: Adobe Illustrator 16.0.0, SVG Export Plug-In . SVG Version: 6.00 Build 0)  -->
<!DOCTYPE svg PUBLIC "-//W3C//DTD SVG 1.1//EN" "http://www.w3.org/Graphics/SVG/1.1/DTD/svg11.dtd">
<svg version="1.1" id="Layer_1" xmlns="http://www.w3.org/2000/svg" xmlns:xlink="http://www.w3.org/1999/xlink" x="0px" y="0px"
	 width="400px" height="400px" viewBox="0 0 400 400" enable-background="new 0 0 400 400" xml:space="preserve">
<path fill-rule="evenodd" clip-rule="evenodd" fill="#FFFFFF" d="M267.377,306.188c-9.007-6.932-12.463-15.937-12.001-26.698
	c0.139-3.268-0.032-6.549,0.034-9.822c0.232-11.449,7.964-20.563,19.333-21.727c6.459-0.662,13.125-0.535,19.578,0.236
	c10.154,1.215,17.755,10.299,17.991,20.543c0.114,4.99,0.146,9.989,0,14.979c-0.269,9.235-4.272,16.636-11.67,22.458
	c1.984,2.638,3.581,4.981,7.423,5.598c14.997,2.405,26.055,15.459,26.449,30.664c0.109,4.254,0.047,8.512,0.032,12.769
	c-0.02,5.804-2.774,8.584-8.565,8.588c-19.4,0.016-38.801,0.006-58.201,0.006c-8.594,0-17.189,0.011-25.784-0.004
	c-5.914-0.011-8.88-2.839-8.731-8.677c0.168-6.608-0.163-13.357,1.086-19.778c2.482-12.758,13.846-22.412,26.79-23.84
	C264.401,311.123,265.569,308.541,267.377,306.188z M254.334,356.241c0-0.906-0.002-1.703,0-2.5c0.001-3.437-0.06-6.876,0.03-10.31
	c0.061-2.371,1.491-3.646,3.746-3.604c2.145,0.04,3.471,1.275,3.57,3.535c0.098,2.123,0.031,4.253,0.033,6.38
	c0.002,2.168,0.001,4.334,0.001,6.41c15.009,0,29.606,0,44.366,0c0-4.211-0.063-8.212,0.021-12.212
	c0.066-3.11,2.005-4.675,4.754-3.99c2.182,0.542,2.627,2.213,2.627,4.151c0,3.993,0,7.984,0,12.114c4.66,0,9.027,0,13.606,0
	c0-4.948,0.134-9.757-0.026-14.556c-0.375-11.217-8.85-20.803-19.881-22.716c-1.477-0.256-2.583,0.028-3.701,1.176
	c-5.139,5.275-10.379,10.448-15.588,15.653c-3.335,3.334-4.632,3.342-7.901,0.073c-5.208-5.206-10.46-10.368-15.594-15.646
	c-1.185-1.217-2.336-1.582-3.903-1.204c-9.541,2.297-16.379,7.993-18.692,17.469c-1.538,6.294-1.142,13.06-1.625,19.775
	C245.3,356.241,249.68,356.241,254.334,356.241z M305.591,275.706c-8.035,4.132-14.491,2.535-20.199-3.578
	c-5.676,7.458-13.172,10.771-22.413,9.715c-0.109,0.514-0.196,0.744-0.204,0.979c-0.373,10.42,8.009,20.245,18.178,21.315
	c11.944,1.26,22.303-6.011,23.989-17.07C305.478,283.539,305.37,279.915,305.591,275.706z M262.793,270.403
	c-0.032,3.851-0.032,3.832,3.899,3.826c4.715-0.008,8.609-1.857,11.616-5.409c1.304-1.541,2.092-3.519,3.38-5.08
	c0.854-1.035,2.158-2.287,3.3-2.329c1.136-0.042,2.477,1.15,3.447,2.091c1.157,1.12,1.877,2.688,3.024,3.82
	c3.871,3.822,8.035,3.872,12.253,0.403c1.047-0.862,1.256-1.634,0.794-2.933c-2.032-5.68-7.443-9.617-13.743-9.732
	c-4.173-0.075-8.349-0.026-12.523-0.015C268.966,255.072,262.874,261.135,262.793,270.403z M283.581,328.012
	c4.557-4.128,9.444-8.554,14.33-12.978c-1.373-2.008-2.557-3.739-3.787-5.54c-6.768,2.663-13.484,2.28-20.037,0.034
	c-1.439,1.975-2.729,3.74-4.245,5.82C274.653,319.783,279.454,324.208,283.581,328.012z"/>
<g>
	<path fill-rule="evenodd" clip-rule="evenodd" fill="#FFFFFF" d="M293.086,20.528c2.4,1.257,3.229,3.219,3.2,5.925
		c-0.109,10.332-0.016,20.666-0.068,30.999c-0.016,3.063-1.851,4.99-4.45,4.986c-2.558-0.004-4.349-1.965-4.538-4.999
		c-0.042-0.7-0.016-1.405-0.016-2.106c0-7.425,0-14.848,0-22.271c0-1.074,0-2.15,0-3.356c-70.015,0-139.692,0-209.797,0
		c0,1.324,0,2.584,0,3.844c0,67.716,0.004,135.433-0.013,203.149c-0.001,1.393-0.008,2.839-0.366,4.163
		c-0.603,2.225-2.293,3.24-4.567,3.055c-2.288-0.187-3.658-1.517-3.986-3.79c-0.143-0.985-0.094-2-0.094-3.003
		C68.388,167.2,68.396,97.276,68.354,27.353c-0.002-2.884,0.276-5.411,3.19-6.824C145.392,20.528,219.239,20.528,293.086,20.528z"/>
	<path fill-rule="evenodd" clip-rule="evenodd" fill="#FFFFFF" d="M206.419,319.563c0.4,3.13,1,6.2,1.771,9.2h-10.29
		c-40.811,0-81.62,0-122.431-0.01c-6,0-7.079-1.04-7.079-6.9v-59c0-1-0.03-2.02,0.109-3c0.34-2.319,1.96-3.88,4.061-3.62
		c1.58,0.2,3.27,1.58,4.359,2.891c0.69,0.83,0.48,2.489,0.48,3.779c0.029,17.66,0.02,35.32,0.02,52.98v3.68H206.419z"/>
	<path fill-rule="evenodd" clip-rule="evenodd" fill="#FFFFFF" d="M296.249,222.063v10.101c-2.96-0.471-5.97-0.771-9.03-0.9
		c-0.01-3.33-0.01-6.66,0-10c-0.01-46.45,0-92.91,0.011-139.37c0-1.39-0.011-2.83,0.34-4.16c0.58-2.239,2.25-3.27,4.53-3.12
		c2.3,0.15,3.68,1.461,4.04,3.73c0.149,0.98,0.1,2,0.1,3C296.249,128.254,296.249,175.153,296.249,222.063z"/>
	<path fill-rule="evenodd" clip-rule="evenodd" fill="#FFFFFF" d="M265.369,233.424c0-0.45,0.01-0.89,0.05-1.34
		c0.25-2.57,1.771-4,4.271-4.24c2.279-0.23,4.25,1.52,4.649,3.94L265.369,233.424z"/>
	<path fill-rule="evenodd" clip-rule="evenodd" fill="#FFFFFF" d="M274.399,210.264c-0.03,3.5-1.74,5.46-4.62,5.4
		c-2.771-0.051-4.351-1.94-4.39-5.33c-0.03-3.38-0.011-6.76-0.011-10.29h-19.95v41.3c-3.239,1.84-6.329,3.9-9.26,6.17v-12.24
		c0-12.76,0-25.52,0.01-38.279c0-4.771,1.381-6.131,6.04-6.141c8.83-0.01,17.65-0.02,26.48,0c4.12,0.01,5.67,1.53,5.7,5.57
		C274.439,201.034,274.439,205.653,274.399,210.264z"/>
	<path fill-rule="evenodd" clip-rule="evenodd" fill="#FFFFFF" d="M122.829,79.523c-19.15-0.04-34.939,15.59-35.03,34.65
		c-0.08,19.31,15.591,35.14,34.811,35.18c19.14,0.04,34.93-15.58,35.02-34.66C157.729,95.384,142.069,79.563,122.829,79.523z
		 M127.459,89.273c9.75,0.95,19.47,10.681,20.41,20.41h-20.41V89.273z M122.119,140.313c-13.55-0.27-24.86-11.42-25.26-24.899
		c-0.391-12.92,9.479-25.21,21.34-26.12v5.35c0,6.311-0.05,12.63,0.03,18.94c0.05,3.79,1.56,5.279,5.35,5.31
		c7.01,0.061,14.03,0.021,21.05,0.03h3.2C147.06,130.594,134.869,140.563,122.119,140.313z"/>
	<path fill-rule="evenodd" clip-rule="evenodd" fill="#FFFFFF" d="M235.429,46.363c-0.01-5.1-1.31-6.409-6.399-6.42
		c-15.54-0.01-31.08,0-46.61,0c-15.74,0-31.479-0.01-47.22,0.011c-4.53,0-5.97,1.439-5.99,5.909c-0.03,5.61-0.03,11.221,0,16.841
		c0.021,4.279,1.5,5.819,5.79,5.819c31.58,0.021,63.15,0.03,94.73,0c4.22,0,5.67-1.58,5.689-5.92
		C235.449,57.193,235.439,51.773,235.429,46.363z M226.209,59.344h-87.79v-10.16h87.79V59.344z"/>
	<path fill-rule="evenodd" clip-rule="evenodd" fill="#FFFFFF" d="M219.929,215.094c-8.819-0.03-17.64-0.02-26.46,0
		c-4.35,0.02-5.869,1.48-5.88,5.72c-0.02,27.57-0.01,55.13,0,82.69c0,4.3,1.5,5.81,5.771,5.83c0.8,0,1.59,0.01,2.39,0.01
		c3.33,0.01,6.67,0.02,10,0.02c0-3.14,0.19-6.229,0.55-9.27h-9.449v-75.8h19.67v45.51c2.649-4.49,5.729-8.7,9.189-12.56v-14.051
		c0-7.43,0.01-14.85,0-22.279C225.699,216.653,224.189,215.113,219.929,215.094z"/>
	<path fill-rule="evenodd" clip-rule="evenodd" fill="#FFFFFF" d="M177.049,280.294c0-7.62,0.021-15.24-0.01-22.86
		c-0.01-4.33-1.45-5.76-5.75-5.77c-8.83-0.021-17.649-0.021-26.479,0c-4.48,0-5.881,1.42-5.891,5.949
		c-0.01,15.24-0.01,30.48,0,45.721c0.01,4.51,1.45,5.979,5.92,6c8.721,0.029,17.44,0.029,26.17,0c4.631-0.01,6.021-1.45,6.04-6.181
		C177.069,295.534,177.049,287.914,177.049,280.294z M167.77,300.134h-19.641v-39.35h19.641V300.134z"/>
	<path fill-rule="evenodd" clip-rule="evenodd" fill="#FFFFFF" d="M227.497,79.525c14.238,0,28.478-0.001,42.715,0.002
		c0.9,0,1.826-0.088,2.701,0.073c2.354,0.435,3.785,1.896,3.861,4.302c0.078,2.42-1.303,3.956-3.61,4.515
		c-0.954,0.231-1.995,0.134-2.995,0.134c-28.576,0.006-57.151,0.005-85.727,0.004c-0.803,0-1.612,0.046-2.404-0.048
		c-2.578-0.302-4.299-2.196-4.139-4.647c0.166-2.571,1.646-3.998,4.18-4.297c0.791-0.094,1.603-0.036,2.405-0.036
		C198.821,79.525,213.16,79.525,227.497,79.525z"/>
	<path fill-rule="evenodd" clip-rule="evenodd" fill="#FFFFFF" d="M227.147,129.038c-14.135,0.003-28.27,0.005-42.404-0.002
		c-1.102-0.001-2.225,0.055-3.298-0.137c-2.131-0.382-3.337-1.773-3.526-3.912c-0.188-2.125,0.698-3.799,2.738-4.496
		c1.194-0.409,2.554-0.461,3.84-0.462c28.569-0.023,57.141-0.019,85.711-0.019c0.5,0,1.004-0.018,1.504,0.01
		c3.225,0.177,5.199,2.013,5.093,4.721c-0.103,2.581-2.017,4.271-5.147,4.278C256.821,129.055,241.983,129.035,227.147,129.038z"/>
	<path fill-rule="evenodd" clip-rule="evenodd" fill="#FFFFFF" d="M227.46,99.845c14.235-0.001,28.471-0.003,42.706,0.003
		c1,0.001,2.284-0.317,2.944,0.175c1.398,1.042,3.301,2.436,3.445,3.845c0.146,1.412-1.319,3.35-2.604,4.429
		c-0.89,0.745-2.674,0.557-4.058,0.558c-28.369,0.026-56.74,0.021-85.109,0.021c-0.501,0-1.002,0.013-1.503-0.006
		c-3.488-0.128-5.472-1.859-5.396-4.698c0.073-2.75,1.932-4.308,5.367-4.313C197.987,99.831,212.725,99.846,227.46,99.845z"/>
	<path fill-rule="evenodd" clip-rule="evenodd" fill="#FFFFFF" d="M128.439,286.394c-0.04-4.069-1.61-5.609-5.73-5.63
		c-8.93-0.05-17.85-0.05-26.78,0c-4.09,0.03-5.68,1.64-5.699,5.65c-0.03,5.71-0.03,11.43,0,17.14c0.02,4.2,1.59,5.75,5.87,5.78
		c4.42,0.04,8.829,0.01,13.239,0.01c4.511,0,9.03,0.04,13.54-0.02c3.931-0.051,5.511-1.58,5.561-5.48
		C128.509,298.023,128.509,292.214,128.439,286.394z M119.199,300.164h-19.75v-10.13h19.75V300.164z"/>
	<path fill-rule="evenodd" clip-rule="evenodd" fill="#FFFFFF" d="M141.232,199.401c-12.841,0-25.685,0.001-38.526-0.003
		c-1.003,0-2.018,0.056-3.006-0.077c-2.427-0.325-3.807-1.854-3.947-4.212c-0.133-2.244,1.078-3.859,3.268-4.47
		c1.036-0.288,2.181-0.258,3.277-0.259c25.983-0.013,51.969-0.01,77.955-0.008c0.803,0,1.614-0.054,2.404,0.052
		c2.559,0.347,4.266,2.3,4.066,4.729c-0.214,2.568-1.686,4.053-4.258,4.188c-2.402,0.127-4.813,0.058-7.222,0.059
		C163.906,199.403,152.57,199.401,141.232,199.401z"/>
	<path fill-rule="evenodd" clip-rule="evenodd" fill="#FFFFFF" d="M141.151,179.197c-12.738,0-25.477,0.004-38.216-0.007
		c-1.099-0.001-2.216,0.008-3.298-0.163c-2.554-0.405-3.979-2.054-3.875-4.56c0.104-2.499,1.64-4.02,4.227-4.245
		c0.896-0.077,1.803-0.054,2.706-0.054c25.677-0.003,51.354-0.003,77.032,0.002c1.102,0.001,2.219-0.036,3.302,0.126
		c2.297,0.346,3.573,1.806,3.685,4.079c0.119,2.4-1.043,4.067-3.457,4.57c-1.162,0.243-2.39,0.239-3.59,0.241
		C166.829,179.202,153.991,179.197,141.151,179.197z"/>
	<path fill-rule="evenodd" clip-rule="evenodd" fill="#FFFFFF" d="M209.015,149.358c-8.528,0-17.055,0.016-25.582-0.007
		c-3.533-0.01-5.55-1.677-5.563-4.49c-0.012-2.816,2.012-4.521,5.525-4.524c17.156-0.017,34.312-0.02,51.467,0.003
		c3.517,0.004,5.466,1.74,5.389,4.636c-0.073,2.749-1.983,4.361-5.354,4.373C226.269,149.378,217.642,149.358,209.015,149.358z"/>
	<path fill-rule="evenodd" clip-rule="evenodd" fill="#FFFFFF" d="M123.226,210.719c7.218,0,14.437-0.017,21.655,0.007
		c3.325,0.012,5.347,1.642,5.454,4.293c0.111,2.757-2.016,4.704-5.412,4.713c-14.638,0.035-29.274,0.037-43.913-0.002
		c-3.249-0.01-5.292-1.855-5.309-4.519c-0.019-2.671,2.028-4.467,5.267-4.481C108.388,210.697,115.807,210.719,123.226,210.719z"/>
</g>
<g>
	<path fill="#FFFFFF" d="M196.85,295.474v4.62h9.449c1.301-10.95,4.87-21.21,10.221-30.29v-17.22
		C206.399,264.584,199.409,279.304,196.85,295.474z M296.249,222.063c-2.96-0.43-5.97-0.7-9.03-0.8c-1.09-0.05-2.189-0.07-3.3-0.07
		c-13.79,0-26.859,3.181-38.49,8.86c-3.199,1.55-6.289,3.3-9.26,5.22c-3.689,2.38-7.18,5.03-10.46,7.92
		c-3.29,2.9-6.37,6.04-9.189,9.391c-10.12,12-17.11,26.72-19.67,42.89c-0.73,4.521-1.101,9.15-1.101,13.87c0,0.01,0,0.01,0,0.02
		c0,3.45,0.2,6.851,0.601,10.2c0.35,3.12,0.869,6.19,1.55,9.2c8.859,39.311,44.06,68.76,86.02,68.76
		c48.61,0,88.17-39.55,88.17-88.16C372.089,264.934,339.049,228.074,296.249,222.063z M283.919,387.523
		c-36.41,0-67.08-25.01-75.729-58.76c-0.771-3-1.37-6.07-1.771-9.2c-0.439-3.34-0.67-6.739-0.67-10.2c0-3.14,0.19-6.229,0.55-9.27
		c1.301-10.95,4.87-21.21,10.221-30.29c2.649-4.49,5.729-8.7,9.189-12.56c3.181-3.551,6.681-6.811,10.46-9.73
		c2.931-2.27,6.021-4.33,9.26-6.17c6.171-3.51,12.87-6.2,19.94-7.92c2.93-0.72,5.92-1.271,8.97-1.64
		c3.141-0.391,6.34-0.591,9.58-0.591c1.11,0,2.21,0.021,3.3,0.07c3.061,0.13,6.07,0.43,9.03,0.9
		c37.26,5.93,65.84,38.29,65.84,77.199C362.089,352.464,327.02,387.523,283.919,387.523z M196.85,295.474v4.62h9.449
		c1.301-10.95,4.87-21.21,10.221-30.29v-17.22C206.399,264.584,199.409,279.304,196.85,295.474z"/>
</g>
</svg>
