<?xml version="1.0" encoding="utf-8"?>
<!-- Generator: Adobe Illustrator 23.0.1, SVG Export Plug-In . SVG Version: 6.00 Build 0)  -->
<svg version="1.1" id="Capa_1" xmlns="http://www.w3.org/2000/svg" xmlns:xlink="http://www.w3.org/1999/xlink" x="0px" y="0px"
	 viewBox="0 0 512 512" style="enable-background:new 0 0 512 512;" xml:space="preserve">
<style type="text/css">
	.st0{fill:#FFFFFF;}
</style>
<g>
	<path class="st0" d="M294.9,178.4h-31.5c-4.1,0-7.5,3.4-7.5,7.5c0,4.1,3.4,7.5,7.5,7.5h31.5c4.1,0,7.5-3.4,7.5-7.5
		C302.4,181.8,299,178.4,294.9,178.4z"/>
	<path class="st0" d="M294.9,153.3h-31.5c-4.1,0-7.5,3.4-7.5,7.5s3.4,7.5,7.5,7.5h31.5c4.1,0,7.5-3.4,7.5-7.5S299,153.3,294.9,153.3
		z"/>
	<path class="st0" d="M253.7,126.9c-11.3,0-20.6,9.2-20.6,20.6v51.8c0,11.3,9.2,20.6,20.6,20.6h50.9c11.3,0,20.6-9.2,20.6-20.6
		v-51.8c0-11.3-9.2-20.6-20.6-20.6L253.7,126.9z M310.1,147.4v51.8c0,3.1-2.5,5.6-5.6,5.6h-50.9c-3.1,0-5.6-2.5-5.6-5.6v-51.8
		c0-3.1,2.5-5.6,5.6-5.6h50.9C307.6,141.9,310.1,144.4,310.1,147.4L310.1,147.4z"/>
	<path class="st0" d="M15,389.2l81.5,115c5.9,8.4,17.7,10.3,26.3,4.2c8.1-5.7,72.1-51,81.8-57.9c8.5-6,10.5-17.7,4.6-26.1l-2-2.8
		c20.8-10.4,43.9-15.8,67.3-15.5l99.1,1.2c18.5,0.5,37-5.2,52.2-15.8l60.8-42.8c14.3-10.1,18.3-29.9,8.8-44.2
		c-4.9-7.4-12.3-12.3-21-14c-0.1,0-0.3,0-0.4-0.1c-1.5-9.1-6.3-17.4-13.1-22.3c-14.6-10.4-34.8-6.9-45.1,7.9l-45.2,65.1l-14.9-1.5
		c4.1-5,6.9-11.1,7.7-17.9c2.3-18.7-10.6-35.5-29.2-38.4l-110.1-16.8c-14.4-2.2-29,1.2-40.9,9.6l-52.7,37.1l-2.8-4
		c-6-8.4-17.6-10.3-26.1-4.4c-9.7,6.9-72.1,51.1-81.8,57.9C11.2,369.1,9,380.8,15,389.2L15,389.2z M428.1,284.7
		c5.5-7.9,16.2-9.8,24-4.3c3.2,2.3,5.6,6.4,6.7,11c-3.3,1-6.5,2.6-9.1,4.5l-57.3,40.4L428.1,284.7z M191.8,288.6
		c8.7-6.2,19.4-8.7,30-7l110.1,16.8c10.6,1.6,17.9,11.2,16.6,21.8c-1.2,9.4-8.9,16.7-18.5,17.2c-1.1,0.1,3.6,0.4-41.7-3.2
		c-4.1-0.3-7.7,2.8-8.1,6.9c-0.3,4.1,2.8,7.7,6.9,8.1c1,0.1,90.1,7.1,92.2,8.2c5.2,0.5,10.6-0.9,14.9-3.9l26.6-18.7l37.5-26.4
		c7.8-5.5,19-3.7,24.5,4.6c5,7.6,2.8,18.2-5,23.7L417,379.3c-12.5,8.8-27.8,13.5-43.2,13.1l-99.2-1.2c-26.5-0.3-52.7,5.9-76.2,18.1
		c-5.8-8.3-53.3-75.2-59.2-83.6L191.8,288.6z M110.2,317.3c1.7-1.2,4-0.8,5.2,0.8c5.4,7.7,71.3,100.6,74.6,105.3l6.9,9.7
		c1.1,1.6,0.8,3.9-1,5.1l-17.6,12.5c-1.2-1.7-84.5-119.2-85.7-121L110.2,317.3z M28.4,375.3l51.9-36.8c1.2,1.7,84.5,119.2,85.7,121
		l-51.9,36.8c-1.8,1.3-4.2,1-5.4-0.7l-81.5-115C26.1,378.9,26.5,376.6,28.4,375.3z"/>
	<path class="st0" d="M428.8,231.6h-84.2c-4.1,0-7.5,3.4-7.5,7.5s3.4,7.5,7.5,7.5h84.2c11.9,0,21.6-9.7,21.6-21.6V21.6
		c0-11.9-9.7-21.6-21.6-21.6c-7.6,0-195.6,0-203.4,0c-11.9,0-21.6,9.7-21.6,21.6V225c0,11.9,9.7,21.6,21.6,21.6h84.2
		c4.1,0,7.5-3.4,7.5-7.5s-3.4-7.5-7.5-7.5h-84.2c-3.6,0-6.6-3-6.6-6.6V21.6c0-3.6,3-6.6,6.6-6.6h66v81.7c0,9.9,11,15.8,19.2,10.4
		l16.4-10.8l16.4,10.8c8.3,5.4,19.2-0.5,19.2-10.4V68.2c0-4.1-3.4-7.5-7.5-7.5s-7.5,3.4-7.5,7.5v23.7l-13.9-9.1
		c-4.1-2.7-9.5-2.7-13.6,0l-13.9,9.1V15h41.3v18.2c0,4.1,3.4,7.5,7.5,7.5s7.5-3.4,7.5-7.5V15h66c3.6,0,6.6,3,6.6,6.6V225
		C435.4,228.6,432.5,231.6,428.8,231.6L428.8,231.6z"/>
</g>
</svg>
