<?xml version="1.0" encoding="utf-8"?>
<!-- Generator: Adobe Illustrator 23.0.1, SVG Export Plug-In . SVG Version: 6.00 Build 0)  -->
<svg version="1.1" id="pickup" xmlns="http://www.w3.org/2000/svg" xmlns:xlink="http://www.w3.org/1999/xlink" x="0px" y="0px"
	 viewBox="0 0 512 512" style="enable-background:new 0 0 512 512;" xml:space="preserve">
<style type="text/css">
	.st0{fill:#FFFFFF;}
</style>
<g>
	<path class="st0" d="M111.2,98.4c13.2,0,23.9-10.7,23.9-23.9s-10.7-23.9-23.9-23.9S87.3,61.4,87.3,74.5S98.1,98.4,111.2,98.4z
		 M111.2,64.3c5.6,0,10.2,4.6,10.2,10.2c0,5.6-4.6,10.2-10.2,10.2c-5.6,0-10.2-4.6-10.2-10.2C101,68.9,105.6,64.3,111.2,64.3z"/>
	<path class="st0" d="M203.3,155.7c4,0,7.3-3.3,7.3-7.3s-3.3-7.3-7.3-7.3c-4,0-7.3,3.3-7.3,7.3S199.2,155.7,203.3,155.7z"/>
	<path class="st0" d="M85.3,208.8c3.8,0,6.8-3.1,6.8-6.8v-13.7c0-3.8-3.1-6.8-6.8-6.8s-6.8,3.1-6.8,6.8v13.7
		C78.5,205.7,81.6,208.8,85.3,208.8z"/>
	<path class="st0" d="M85.3,222.4c-3.8,0-6.8,3.1-6.8,6.8v13.7c0,3.8,3.1,6.8,6.8,6.8s6.8-3.1,6.8-6.8v-13.7
		C92.2,225.5,89.1,222.4,85.3,222.4z"/>
	<path class="st0" d="M71.7,208.8H58c-3.8,0-6.8,3.1-6.8,6.8c0,3.8,3.1,6.8,6.8,6.8h13.7c3.8,0,6.8-3.1,6.8-6.8
		C78.5,211.8,75.5,208.8,71.7,208.8z"/>
	<path class="st0" d="M112.6,208.8H99c-3.8,0-6.8,3.1-6.8,6.8c0,3.8,3.1,6.8,6.8,6.8h13.7c3.8,0,6.8-3.1,6.8-6.8
		C119.5,211.8,116.4,208.8,112.6,208.8z"/>
	<path class="st0" d="M460.8,72.2c0-3.8-3.1-6.8-6.8-6.8H297c-3.8,0-6.8,3.1-6.8,6.8v41c0,3.8,3.1,6.8,6.8,6.8h47.8v334.5
		c0,3.8,3.1,6.8,6.8,6.8H454c3.8,0,6.8-3.1,6.8-6.8V72.2z M303.8,79.1h143.4v27.3H303.8V79.1z M447.1,120v143.4h-88.7V120H447.1z
		 M358.4,290.7V277h88.7v13.7H358.4z M358.4,304.3h27.3v143.4h-27.3V304.3z M399.4,447.7V304.3h47.8v143.4H399.4z"/>
	<path class="st0" d="M385.7,242.9h34.1c3.8,0,6.8-3.1,6.8-6.8v-81.9c0-3.8-3.1-6.8-6.8-6.8h-34.1c-3.8,0-6.8,3.1-6.8,6.8v81.9
		C378.9,239.8,381.9,242.9,385.7,242.9z M392.5,161H413v68.3h-20.5V161z"/>
	<circle class="st0" cx="246.2" cy="404.8" r="10.2"/>
	<circle class="st0" cx="157.4" cy="404.8" r="10.2"/>
	<path class="st0" d="M225.2,214.5c-32.9,0-59.7,26.8-59.7,59.7c0,13.1,8.9,32.3,19.5,50.6h-23.9c-11.1,0-20.5,7.9-22.5,18.8
		l-4.2,23.6c-8.4,3.2-14.5,11.2-14.5,20.8v30.6c0,11.5,8.8,20.9,20.1,22v3.6c0,9.4,7.7,17.1,17.1,17.1c9.4,0,17.1-7.7,17.1-17.1
		v-3.4h54.6v3.4c0,9.4,7.7,17.1,17.1,17.1c9.4,0,17.1-7.7,17.1-17.1v-3.5c11.6-0.7,20.9-10.3,20.9-22.1V388
		c0-9.5-6.1-17.6-14.5-20.8l-4.2-23.6c-0.7-3.8-2.3-7.2-4.7-10.2c12.7-20.7,24.6-44.1,24.6-59.2
		C284.9,241.3,258.2,214.5,225.2,214.5z M225.2,228.2c25.4,0,46.1,20.7,46.1,46.1c0,19.6-29.5,64.1-46.1,86.8
		c-16.6-22.7-46.1-67.2-46.1-86.8C179.2,248.8,199.8,228.2,225.2,228.2z M251.7,346.9l3.4,18.9h-16.4
		C242.3,360.7,246.9,354.2,251.7,346.9z M161.1,338.5h32.2c6.8,10.7,13.5,20.3,18.5,27.3h-63.3l3.5-19.7
		C152.9,341.6,156.7,338.5,161.1,338.5L161.1,338.5z M160.4,444.3c0,1.9-1.5,3.4-3.4,3.4s-3.4-1.5-3.4-3.4v-3.4h6.8V444.3z
		 M245.8,447.7c-1.9,0-3.4-1.5-3.4-3.4v-3.4h6.8v3.4C249.2,446.2,247.6,447.7,245.8,447.7z M270.1,418.6c0,4.7-3.8,8.6-8.6,8.6
		H142.1c-4.7,0-8.6-3.8-8.6-8.6V388c0-4.7,3.8-8.6,8.6-8.6h119.4c4.7,0,8.6,3.8,8.6,8.6L270.1,418.6L270.1,418.6z"/>
	<path class="st0" d="M258.8,274.2c0-18.5-15.1-33.6-33.6-33.6s-33.6,15.1-33.6,33.6s15.1,33.6,33.6,33.6S258.8,292.7,258.8,274.2z
		 M205.3,274.2c0-11,8.9-19.9,19.9-19.9c11,0,19.9,8.9,19.9,19.9c0,11-8.9,19.9-19.9,19.9S205.3,285.2,205.3,274.2L205.3,274.2z"/>
</g>
</svg>
