<?xml version="1.0" encoding="utf-8"?>
<!-- Generator: Adobe Illustrator 23.0.1, SVG Export Plug-In . SVG Version: 6.00 Build 0)  -->
<svg version="1.1" id="Layer_1" xmlns="http://www.w3.org/2000/svg" xmlns:xlink="http://www.w3.org/1999/xlink" x="0px" y="0px"
	 viewBox="0 0 1065 1065" style="enable-background:new 0 0 1065 1065;" xml:space="preserve">
<style type="text/css">
	.st0{fill-rule:evenodd;clip-rule:evenodd;fill:#FFFFFF;}
</style>
<path class="st0" d="M759.7,174.3v338.3h169.7V174.3c0-46.6-38.2-84.8-84.8-84.8C797.9,89.5,759.7,127.7,759.7,174.3z M342.5,322
	c-11.4-11.4-11.4-29.9,0-41.4c11.4-11.4,29.9-11.4,41.4,0l16,16l51.8-51.8c-36-27.9-87.2-24.6-119.4,7.6
	c-35.4,35.4-35.4,92.7,0,128.1c35.4,35.4,92.7,35.4,128.1,0c22.1-22,31.6-54.3,23.9-85.6l-63.7,63.7c-11.4,11.4-29.9,11.4-41.4,0
	L342.5,322z M493.2,203.3l36.7-36.7c11.4-11.4,29.9-11.4,41.4,0c11.4,11.4,11.4,29.9,0,41.4l-41.8,41.8
	c28.9,57.6,17.4,127-27.9,172.2c-58.2,58.2-152.6,58.2-210.8,0c-58.2-58.2-58.2-152.6,0-210.8C346,156.1,434.1,152.7,493.2,203.3z
	 M213.7,814.9c-16.2,0-29.3,13.1-29.3,29.3c0,16.2,13.1,29.3,29.3,29.3c16.2,0,29.3-13.1,29.3-29.3
	C242.9,828,229.8,814.9,213.7,814.9z M330.7,873.4c-16.2,0-29.3-13.1-29.3-29.3c0-16.2,13.1-29.3,29.3-29.3h282.8
	c16.2,0,29.3,13.1,29.3,29.3c0,16.2-13.1,29.3-29.3,29.3H330.7z M213.7,697.9c-16.2,0-29.3,13.1-29.3,29.3
	c0,16.2,13.1,29.3,29.3,29.3c16.2,0,29.3-13.1,29.3-29.3C242.9,711,229.8,697.9,213.7,697.9z M330.7,756.4
	c-16.2,0-29.3-13.1-29.3-29.3c0-16.2,13.1-29.3,29.3-29.3h282.8c16.2,0,29.3,13.1,29.3,29.3c0,16.2-13.1,29.3-29.3,29.3H330.7z
	 M759.7,571.1v429c0,16.2-13.1,29.3-29.3,29.3H96.7c-16.2,0-29.3-13.1-29.3-29.3V171.4C67.4,94,130.5,31,207.8,31h636.7
	c78.9,0,143.3,64.4,143.3,143.3v367.6c0,16.2-13.1,29.3-29.3,29.3H759.7z M729.2,89.5c-17.5,23.8-27.9,53.1-27.9,84.8v796.6H125.9
	V171.4c0-45.1,36.8-81.9,81.9-81.9H729.2z M213.7,580.9c-16.2,0-29.3,13.1-29.3,29.3c0,16.2,13.1,29.3,29.3,29.3
	c16.2,0,29.3-13.1,29.3-29.3C242.9,594,229.8,580.9,213.7,580.9z M330.7,639.4h282.8c16.2,0,29.3-13.1,29.3-29.3
	c0-16.2-13.1-29.3-29.3-29.3H330.7c-16.2,0-29.3,13.1-29.3,29.3C301.4,626.3,314.5,639.4,330.7,639.4z"/>
</svg>
