<?xml version="1.0" encoding="utf-8"?>
<!-- Generator: Adobe Illustrator 23.0.1, SVG Export Plug-In . SVG Version: 6.00 Build 0)  -->
<svg version="1.1" id="Layer_1" xmlns="http://www.w3.org/2000/svg" xmlns:xlink="http://www.w3.org/1999/xlink" x="0px" y="0px"
	 viewBox="0 0 512 512" style="enable-background:new 0 0 512 512;" xml:space="preserve">
<style type="text/css">
	.st0{fill:#FFFFFF;}
</style>
<g id="Bike-watch-delivery-shipping-transport-transportation-clock-time">
	<path class="st0" d="M440,360h-9l-13.9-104H448c4.4,0,8-3.6,8-8v-4.9l13.4,4.5c0.8,0.2,1.7,0.4,2.6,0.4c1.7,0,3.3-0.5,4.6-1.5
		c2.1-1.5,3.4-3.9,3.4-6.5v-48c0-2.6-1.2-5-3.4-6.5c-2.1-1.5-4.8-1.9-7.2-1.1l-13.4,4.5V184c0-4.4-3.6-8-8-8h-64
		c-13.2,0-24,10.8-24,24h-32c-4.4,0-8,3.6-8,8v32c0,4.4,3.6,8,8,8h32c0,4.4,3.6,8,8,8v120c0,13.2-10.8,24-24,24h-48v-32.4
		c15.3-2.1,25.9-16.3,23.8-31.6c-1.9-13.8-13.8-24.1-27.8-24H176v-96c0-4.4-3.6-8-8-8H24c-4.4,0-8,3.6-8,8v144c0,4.4,3.6,8,8,8h64
		v24c0,4.4,3.6,8,8,8h24.6c-0.4,2.6-0.6,5.3-0.6,8v32c0,4.4,3.6,8,8,8h16c0,26.5,21.5,48,48,48s48-21.5,48-48h136
		c0,26.5,21.5,48,48,48s48-21.5,48-48h16c4.4,0,8-3.6,8-8v-24C496,385.1,470.9,360,440,360z M456,205.8l8-2.6v25.8l-8-2.6V205.8z
		 M384,192h56v48h-46.2c4-4.4,6.2-10.1,6.2-16c0-13.2-10.8-24-24-24C376,195.6,379.6,192,384,192z M336,232v-16h40c4.4,0,8,3.6,8,8
		s-3.6,8-8,8H336z M176,328h116c6.6,0,12,5.4,12,12s-5.4,12-12,12H176V328z M88,224h16v8H88V224z M32,224h40v8c0,8.8,7.2,16,16,16
		h16c8.8,0,16-7.2,16-16v-8h40v32H32V224z M104,272v8H88v-8H104z M32,272h40v8c0,8.8,7.2,16,16,16h16c8.8,0,16-7.2,16-16v-8h40v32
		H32V272z M104,320v8H88v-8H104z M32,352v-32h40v8c0,8.8,7.2,16,16,16h16c8.8,0,16-7.2,16-16v-8h40v32H32z M125.4,384H104v-16h32.9
		C132.1,372.6,128.3,378,125.4,384z M192,480c-17.7,0-32-14.3-32-32h8c0,13.3,10.7,24,24,24s24-10.7,24-24h8
		C224,465.7,209.7,480,192,480z M184,448h16c0,4.4-3.6,8-8,8S184,452.4,184,448z M248,432H136v-24c0-22.1,17.9-40,40-40h32
		c22.1,0,40,17.9,40,40V432z M424,480c-17.7,0-32-14.3-32-32h8c0,13.3,10.7,24,24,24s24-10.7,24-24h8C456,465.7,441.7,480,424,480z
		 M416,448h16c0,4.4-3.6,8-8,8S416,452.4,416,448z M480,432H264v-24c0-15.1-6.1-29.5-16.9-40H280v40c0,4.4,3.6,8,8,8h56
		c22.1,0,40-17.9,40-40V256h17l15.1,113c0.5,4,3.9,7,7.9,7h16c22.1,0,40,17.9,40,40V432z"/>
	<path class="st0" d="M168,384h48v16h-48V384z"/>
	<path class="st0" d="M168,408h48v16h-48V408z"/>
	<path class="st0" d="M256,224c57.4,0,104-46.6,104-104S313.4,16,256,16S152,62.6,152,120C152.1,177.4,198.6,223.9,256,224z
		 M168.4,112c1.6-17.8,8.6-34.6,20-48.3l11,11l11.3-11.3l-11-11C213.4,41,230.2,34,248,32.4V48h16V32.4c17.8,1.6,34.6,8.6,48.3,20
		l-11,11l11.3,11.3l11-11c11.4,13.7,18.4,30.5,20,48.3H328v16h15.6c-1.6,17.8-8.6,34.6-20,48.3l-11-11l-11.3,11.3l11,11
		c-13.7,11.4-30.5,18.4-48.3,20V192h-16v15.6c-17.8-1.6-34.6-8.6-48.3-20l11-11l-11.3-11.3l-11,11c-11.4-13.7-18.4-30.5-20-48.3H184
		v-16H168.4z"/>
	<path class="st0" d="M256,128c2.1,0,4.2-0.8,5.7-2.3l32-32l-11.3-11.3L256,108.7l-34.3-34.3l-11.3,11.3l40,40
		C251.8,127.2,253.9,128,256,128z"/>
	<path class="st0" d="M32,72h96v16H32V72z"/>
	<path class="st0" d="M48,112h80v16H48V112z"/>
	<path class="st0" d="M72,152h56v16H72V152z"/>
</g>
</svg>
