<svg height="480pt" viewBox="0 0 480 480" width="480pt" xmlns="http://www.w3.org/2000/svg"><path d="m472 464h-16v-24c0-13.253906-10.746094-24-24-24h-8v-48c0-8.835938-7.164062-16-16-16h-8v-16h32c13.253906 0 24-10.746094 24-24v-32c0-13.253906-10.746094-24-24-24h-112c-13.253906 0-24 10.746094-24 24v32c0 13.253906 10.746094 24 24 24h32v16h-80v-24c0-13.253906-10.746094-24-24-24h-32c-4.417969 0-8 3.582031-8 8s3.582031 8 8 8 8 3.582031 8 8v24h-8c-8.835938 0-16 7.164062-16 16v48h-8c-13.253906 0-24 10.746094-24 24v24h-16v-104c0-13.253906-10.746094-24-24-24h-8v-16c0-17.671875-14.328125-32-32-32s-32 14.328125-32 32v16h-8c-13.253906 0-24 10.746094-24 24v104h-16c-4.417969 0-8 3.582031-8 8s3.582031 8 8 8h464c4.417969 0 8-3.582031 8-8s-3.582031-8-8-8zm-400-144c0-8.835938 7.164062-16 16-16s16 7.164062 16 16v16h-32zm-32 144v-104c0-4.417969 3.582031-8 8-8h8v24c0 4.417969 3.582031 8 8 8s8-3.582031 8-8v-24h32v24c0 4.417969 3.582031 8 8 8s8-3.582031 8-8v-24h8c4.417969 0 8 3.582031 8 8v104zm280-144c-4.417969 0-8-3.582031-8-8v-32c0-4.417969 3.582031-8 8-8h112c4.417969 0 8 3.582031 8 8v32c0 4.417969-3.582031 8-8 8zm48 16h16v16h-16zm-129.367188-16h9.367188c4.417969 0 8 3.582031 8 8v24h-16v-24c.003906-2.726562-.460938-5.429688-1.367188-8zm-54.632812 120c0-4.417969 3.582031-8 8-8h128c4.417969 0 8-3.582031 8-8s-3.582031-8-8-8h-104v-48h192v48h-40c-4.417969 0-8 3.582031-8 8s3.582031 8 8 8h64c4.417969 0 8 3.582031 8 8v24h-256zm0 0"/><path d="m424 296c0-4.417969-3.582031-8-8-8h-32c-4.417969 0-8 3.582031-8 8s3.582031 8 8 8h32c4.417969 0 8-3.582031 8-8zm0 0"/><path d="m352 288h-16c-4.417969 0-8 3.582031-8 8s3.582031 8 8 8h16c4.417969 0 8-3.582031 8-8s-3.582031-8-8-8zm0 0"/><path d="m256.96875 153c-9.5 9.054688-24.4375 9.054688-33.9375 0-3.136719-3.03125-8.128906-2.988281-11.214844.097656-3.085937 3.085938-3.128906 8.074219-.097656 11.214844 15.621094 15.613281 40.941406 15.613281 56.5625 0 2.078125-2.007812 2.914062-4.984375 2.179688-7.78125-.730469-2.796875-2.914063-4.980469-5.710938-5.710938-2.800781-.734374-5.773438.101563-7.78125 2.179688zm0 0"/><path d="m216 112.023438c0 4.417968-3.582031 8-8 8s-8-3.582032-8-8c0-4.417969 3.582031-8 8-8s8 3.582031 8 8zm0 0"/><path d="m280 112.023438c0 4.417968-3.582031 8-8 8s-8-3.582032-8-8c0-4.417969 3.582031-8 8-8s8 3.582031 8 8zm0 0"/><path d="m168 296v96c0 4.417969 3.582031 8 8 8s8-3.582031 8-8v-96c0-4.417969-3.582031-8-8-8s-8 3.582031-8 8zm0 0"/><path d="m112 280c4.417969 0 8-3.582031 8-8v-16c0-13.253906 10.746094-24 24-24h56.800781c3.785157 18.644531 20.175781 32.039062 39.199219 32.039062s35.414062-13.394531 39.199219-32.039062h56.800781c5.792969.019531 11.375 2.164062 15.695312 6.023438 2.109376 2.101562 5.214844 2.855468 8.050782 1.957031 2.839844-.894531 4.945312-3.292969 5.46875-6.226563.519531-2.929687-.628906-5.910156-2.984375-7.730468-5.195313-4.542969-11.472657-7.671876-18.230469-9.085938v-120.9375c-.058594-52.996094-43.003906-95.9414062-96-96h-24c-48.578125.0585938-87.941406 39.421875-88 88v128.800781c-18.613281 3.820313-31.980469 20.195313-32 39.199219v16c0 4.417969 3.582031 8 8 8zm166.289062-103.105469c-11.289062 10.671875-26.539062 16.117188-42.03125 15.007813-29.96875-2.628906-52.792968-27.992188-52.257812-58.070313v-53.832031h35.070312c6.050782.027344 11.59375-3.382812 14.289063-8.800781l6.640625-13.320313 6.640625 13.320313c2.699219 5.414062 8.238281 8.828125 14.289063 8.800781h35.070312v56c.074219 15.507812-6.351562 30.339844-17.710938 40.894531zm-38.289062 71.105469c-13.253906 0-24-10.746094-24-24v-20.199219c6.175781 2.257813 12.640625 3.628907 19.199219 4.070313 1.601562.101562 3.214843.152344 4.839843.152344 8.164063-.003907 16.269532-1.402344 23.960938-4.136719v20.113281c0 13.253906-10.746094 24-24 24zm-16-232h24c44.160156.054688 79.945312 35.839844 80 80v120h-48v-20.152344c3.269531-2.175781 6.359375-4.609375 9.238281-7.28125 14.503907-13.636718 22.738281-32.65625 22.761719-52.566406v-56c0-8.835938-7.164062-16-16-16h-35.046875l-6.664063-13.304688c-2.71875-5.394531-8.246093-8.796874-14.289062-8.796874s-11.570312 3.402343-14.289062 8.796874l-6.640626 13.304688h-35.070312c-8.835938 0-16 7.164062-16 16v53.808594c-.082031 24.550781 11.875 47.578125 32 61.640625v20.550781h-48v-128c.042969-39.746094 32.253906-71.957031 72-72zm0 0"/><path d="m112 400h-48c-4.417969 0-8 3.582031-8 8s3.582031 8 8 8h48c4.417969 0 8-3.582031 8-8s-3.582031-8-8-8zm0 0"/><path d="m112 432h-24c-4.417969 0-8 3.582031-8 8s3.582031 8 8 8h24c4.417969 0 8-3.582031 8-8s-3.582031-8-8-8zm0 0"/></svg>